<svg width="463" height="422" viewBox="0 0 463 422" fill="none" xmlns="http://www.w3.org/2000/svg">
<path fill-rule="evenodd" clip-rule="evenodd" d="M-21.8206 353.324C48.1067 356.646 116.49 332.054 168.285 284.957C220.08 237.86 251.045 172.117 254.367 102.19C254.462 100.192 255.347 98.3135 256.827 96.9679C258.307 95.6222 260.26 94.9196 262.258 95.0145C264.256 95.1095 266.135 95.9941 267.48 97.474C268.826 98.9539 269.528 100.908 269.434 102.906C265.921 176.829 233.187 246.329 178.432 296.117C123.677 345.905 51.3867 371.902 -22.5364 368.39C-24.5343 368.295 -26.4127 367.411 -27.7583 365.931C-29.1039 364.451 -29.8066 362.497 -29.7116 360.499C-29.6167 358.501 -28.732 356.623 -27.2522 355.277C-25.7723 353.932 -23.8185 353.229 -21.8206 353.324Z" fill="#1DB954"/>
<path fill-rule="evenodd" clip-rule="evenodd" d="M8.43022 292.517C14.0807 292.031 19.6847 291.306 25.2421 290.341L27.7975 305.208C21.8133 306.237 15.7888 307.017 9.73971 307.544L8.43022 292.517ZM58.0286 281.842C68.7055 278.103 79.0523 273.481 88.9614 268.023L96.2312 281.234C85.5906 287.096 74.4801 292.061 63.0149 296.077L58.0286 281.842ZM117.162 249.264C126.027 242.241 134.293 234.492 141.872 226.096L153.072 236.202C144.931 245.22 136.052 253.544 126.528 261.087L117.162 249.264ZM162.405 199.144C168.485 189.606 173.76 179.578 178.175 169.164L192.059 175.056C187.319 186.242 181.656 197.015 175.127 207.261L162.405 199.144ZM188.764 136.99C190.078 131.492 191.163 125.941 192.016 120.353L206.925 122.632C206.004 128.653 204.841 134.608 203.433 140.495L188.764 136.99ZM39.1972 224.503C21.4899 230.87 2.70196 233.687 -16.094 232.793C-18.092 232.698 -19.9704 231.813 -21.316 230.334C-22.6616 228.854 -23.3642 226.9 -23.2693 224.902C-23.1744 222.904 -22.2897 221.026 -20.8098 219.68C-19.3299 218.334 -17.3761 217.632 -15.3782 217.727C18.5864 219.34 51.801 207.396 76.9587 184.52C102.116 161.645 117.156 129.712 118.77 95.7474C118.865 93.7495 119.75 91.8711 121.23 90.5255C122.71 89.1798 124.663 88.4772 126.661 88.5721C128.659 88.667 130.538 89.5518 131.883 91.0316C133.229 92.5115 133.931 94.4653 133.836 96.4632C132.492 124.772 122.783 152.046 105.937 174.837C89.0916 197.628 65.8658 214.912 39.1972 224.503Z" fill="#1DB954"/>
<path fill-rule="evenodd" clip-rule="evenodd" d="M388.577 -167.924C318.606 -165.716 252.377 -135.802 204.462 -84.7636C156.546 -33.7251 130.868 34.2576 133.076 104.229C133.139 106.228 132.405 108.17 131.036 109.629C129.667 111.087 127.775 111.942 125.776 112.005C123.777 112.068 121.834 111.334 120.376 109.965C118.918 108.596 118.063 106.704 118 104.705C115.666 30.735 142.811 -41.1324 193.465 -95.0874C244.119 -149.043 314.131 -180.666 388.101 -183C390.1 -183.063 392.043 -182.329 393.501 -180.96C394.959 -179.591 395.814 -177.699 395.877 -175.7C395.94 -173.701 395.206 -171.758 393.837 -170.3C392.468 -168.842 390.576 -167.987 388.577 -167.924Z" fill="#1DB954"/>
<path fill-rule="evenodd" clip-rule="evenodd" d="M378.506 -88.5784C372.912 -87.6473 367.383 -86.4819 361.919 -85.082L358.198 -99.7008C364.082 -101.199 370.026 -102.451 376.015 -103.455L378.506 -88.5784ZM329.905 -74.0212C319.557 -69.4508 309.607 -64.026 300.16 -57.803L291.87 -70.3988C302.015 -77.0823 312.699 -82.9089 323.811 -87.8181L329.905 -74.0212ZM273.529 -36.8767C265.245 -29.1758 257.617 -20.7981 250.725 -11.8306L238.762 -21.0206C246.166 -30.653 254.359 -39.6518 263.258 -47.9235L273.529 -36.8767ZM232.383 16.6588C227.075 26.647 222.608 37.0601 219.029 47.7901L204.723 43.0126C208.565 31.4867 213.361 20.301 219.06 9.57153L232.383 16.6588ZM211.013 80.6997C210.137 86.2844 209.493 91.9032 209.085 97.5415L194.042 96.4468C194.484 90.3713 195.175 84.3434 196.113 78.363L211.013 80.6997ZM353.205 -18.347C370.354 -26.0921 388.861 -30.3836 407.669 -30.9765C409.668 -31.0396 411.61 -30.3059 413.069 -28.9369C414.527 -27.5679 415.381 -25.6756 415.445 -23.6764C415.508 -21.6773 414.774 -19.7349 413.405 -18.2767C412.036 -16.8184 410.144 -15.9637 408.145 -15.9006C374.158 -14.8281 338.273 -3.29017 315 21.5C291.727 46.2902 267.927 75.014 269 109C269.063 110.999 267.869 125.542 266.5 127C265.131 128.458 243.756 129.936 262.5 127C244.256 129.436 255.958 123.057 254.5 121.688C253.042 120.319 254.563 108.499 254.5 106.5C254.5 78.363 268 58.4063 285 34.5C301 12 327.376 -6.6809 353.205 -18.347Z" fill="#1DB954"/>
</svg>
