<svg width="356" height="484" viewBox="0 0 356 484" fill="none" xmlns="http://www.w3.org/2000/svg">
<path d="M336.6 253.388C331.278 250.135 325.363 247.969 319.192 247.016C313.021 246.062 306.715 246.339 300.635 247.83C294.554 249.321 288.817 251.997 283.752 255.706C278.688 259.415 274.394 264.084 271.116 269.446C267.838 274.808 265.64 280.758 264.649 286.957C263.657 293.155 263.89 299.481 265.335 305.573C266.78 311.665 269.409 317.403 273.071 322.461C276.733 327.518 281.357 331.796 286.679 335.049C297.427 341.619 310.364 343.618 322.644 340.607C334.925 337.596 345.543 329.82 352.163 318.991C358.783 308.162 360.862 295.167 357.944 282.864C355.025 270.561 347.347 259.958 336.6 253.388Z" fill="#1DB954"/>
<path fill-rule="evenodd" clip-rule="evenodd" d="M411.125 171.491C413.005 168.416 416.034 166.215 419.545 165.374C423.056 164.532 426.762 165.119 429.848 167.005C447.809 177.986 463.171 199.389 467.001 224.258C470.967 250.055 462.403 278.547 434.278 302.203C431.519 304.526 427.945 305.656 424.344 305.346C420.742 305.036 417.408 303.31 415.074 300.548C412.74 297.786 411.598 294.214 411.899 290.619C412.2 287.023 413.92 283.698 416.679 281.375C437.92 263.516 442.537 244.305 440.063 228.327C438.307 217.486 433.491 207.362 426.181 199.145L352.858 319.088C350.977 322.164 347.948 324.364 344.437 325.206C340.926 326.047 337.22 325.46 334.135 323.574C331.049 321.688 328.837 318.657 327.985 315.148C327.133 311.64 327.711 307.941 329.591 304.865L411.125 171.491Z" fill="#1DB954"/>
<path d="M600.429 -11.1742C599.735 -12.8848 598.661 -14.4149 597.288 -15.6485C595.915 -16.8821 594.279 -17.7868 592.504 -18.2939L399.763 -73.4295C397.157 -74.1751 394.376 -74.0282 391.863 -73.0123C389.35 -71.9963 387.249 -70.1695 385.893 -67.8223L302.264 77.0276C296.87 66.0901 287.976 57.2688 276.994 51.9653C266.012 46.6618 253.573 45.1803 241.653 47.7561C229.733 50.332 219.015 56.8174 211.203 66.182C203.391 75.5467 198.933 87.2534 198.536 99.4422C198.139 111.631 201.827 123.603 209.014 133.456C216.201 143.308 226.474 150.477 238.201 153.822C249.929 157.168 262.438 156.498 273.741 151.92C285.044 147.342 294.494 139.117 300.587 128.554L402.199 -47.4428L570.847 0.800928L495.005 132.163C489.611 121.226 480.717 112.404 469.735 107.101C458.753 101.797 446.314 100.316 434.394 102.892C422.474 105.468 411.756 111.953 403.944 121.318C396.132 130.682 391.673 142.389 391.277 154.578C390.88 166.767 394.568 178.739 401.755 188.591C408.941 198.444 419.215 205.613 430.942 208.958C442.67 212.303 455.179 211.634 466.482 207.056C477.785 202.477 487.234 194.253 493.328 183.689L599.688 -0.531232C600.613 -2.1321 601.16 -3.92281 601.288 -5.7671C601.417 -7.6114 601.123 -9.46068 600.429 -11.1742Z" fill="#1DB954"/>
<path d="M127.081 241.136C123.57 239.109 119.69 237.798 115.664 237.279C111.638 236.76 107.544 237.042 103.617 238.111C99.689 239.179 96.0045 241.012 92.7733 243.505C89.5422 245.998 86.8277 249.102 84.7849 252.641C82.7421 256.179 81.411 260.082 80.8675 264.127C80.3241 268.171 80.5789 272.279 81.6175 276.214C82.6562 280.15 84.4582 283.836 86.9208 287.063C89.3834 290.291 92.4582 292.995 95.9699 295.023C103.062 299.117 111.502 300.205 119.434 298.048C127.367 295.89 134.141 290.664 138.266 283.518C142.392 276.372 143.531 267.893 141.434 259.944C139.336 251.996 134.173 245.231 127.081 241.136Z" fill="#1DB954"/>
<path fill-rule="evenodd" clip-rule="evenodd" d="M174.179 186.695C175.351 184.666 177.283 183.186 179.552 182.582C181.82 181.978 184.238 182.299 186.274 183.474C198.126 190.318 208.459 203.977 211.354 220.077C214.353 236.778 209.251 255.434 191.359 271.267C189.604 272.822 187.3 273.615 184.954 273.472C182.608 273.329 180.413 272.262 178.851 270.505C177.29 268.748 176.489 266.446 176.626 264.104C176.763 261.762 177.826 259.573 179.581 258.019C193.095 246.065 195.782 233.505 193.914 223.161C192.595 216.144 189.3 209.643 184.415 204.422L138.719 283.57C137.547 285.599 135.615 287.079 133.347 287.683C131.078 288.287 128.66 287.966 126.624 286.791C124.588 285.615 123.101 283.681 122.49 281.415C121.879 279.149 122.194 276.735 123.366 274.705L174.179 186.695Z" fill="#1DB954"/>
<path d="M89.9523 165.472L91.4441 162.89C93.2706 166.167 95.9384 168.898 99.1723 170.8C102.819 172.907 107.01 173.886 111.213 173.612C115.416 173.338 119.444 171.824 122.787 169.261C126.13 166.698 128.637 163.202 129.993 159.213C131.349 155.225 131.491 150.925 130.402 146.855C129.314 142.786 127.043 139.131 123.877 136.353C120.711 133.574 116.792 131.797 112.616 131.245C108.44 130.694 104.195 131.393 100.416 133.255C96.6375 135.116 93.4958 138.057 91.3882 141.704L54.0922 206.244L63.3123 211.572" fill="#1DB954"/>
</svg>
