<svg width="501" height="374" viewBox="0 0 501 374" fill="none" xmlns="http://www.w3.org/2000/svg">
<g clip-path="url(#clip0_80_27)">
<path d="M333.532 265.342C332.853 263.668 331.801 262.17 330.457 260.962C329.113 259.754 327.511 258.869 325.773 258.372L137.081 204.395C134.53 203.665 131.808 203.808 129.347 204.803C126.887 205.798 124.83 207.586 123.503 209.884L41.6303 351.691C36.3496 340.984 27.642 332.348 16.8909 327.156C6.13988 321.963 -6.03792 320.513 -17.7077 323.035C-29.3775 325.557 -39.8699 331.906 -47.5179 341.074C-55.1659 350.242 -59.5308 361.702 -59.9191 373.635C-60.3074 385.568 -56.6969 397.288 -49.6612 406.934C-42.6255 416.58 -32.5681 423.598 -21.087 426.873C-9.60583 430.148 2.6405 429.493 13.7064 425.011C24.7723 420.528 34.023 412.477 39.9887 402.135L139.466 229.836L304.572 277.066L230.323 405.669C225.042 394.961 216.334 386.325 205.583 381.133C194.832 375.941 182.655 374.491 170.985 377.012C159.315 379.534 148.823 385.883 141.175 395.051C133.527 404.219 129.162 415.68 128.773 427.613C128.385 439.546 131.995 451.266 139.031 460.912C146.067 470.558 156.124 477.576 167.605 480.851C179.087 484.126 191.333 483.47 202.399 478.988C213.465 474.506 222.715 466.454 228.681 456.113L332.807 275.762C333.712 274.194 334.248 272.441 334.374 270.636C334.499 268.83 334.212 267.02 333.532 265.342Z" fill="#1DB954"/>
</g>
<path d="M79.838 138.172C76.4001 136.187 72.602 134.904 68.6605 134.395C64.719 133.887 60.7113 134.164 56.8662 135.21C53.0212 136.256 49.414 138.05 46.2507 140.491C43.0875 142.931 40.43 145.97 38.4301 149.434C36.4302 152.898 35.1271 156.719 34.595 160.679C34.063 164.639 34.3125 168.66 35.3293 172.513C36.3461 176.366 38.1103 179.975 40.5211 183.134C42.932 186.294 45.9423 188.941 49.3802 190.926C56.3232 194.935 64.5864 196 72.3519 193.888C80.1174 191.776 86.7491 186.659 90.788 179.663C94.827 172.668 95.9424 164.366 93.8889 156.585C91.8353 148.804 86.7811 142.18 79.838 138.172Z" fill="#1DB954"/>
<path fill-rule="evenodd" clip-rule="evenodd" d="M125.946 84.8744C127.094 82.8874 128.986 81.4388 131.206 80.8474C133.427 80.2561 135.794 80.5703 137.787 81.7211C149.391 88.4204 159.506 101.793 162.341 117.555C165.276 133.905 160.282 152.169 142.766 167.67C141.047 169.192 138.792 169.968 136.495 169.829C134.199 169.689 132.05 168.644 130.521 166.924C128.992 165.204 128.208 162.95 128.342 160.657C128.476 158.365 129.517 156.222 131.236 154.699C144.465 142.997 147.095 130.7 145.266 120.574C143.976 113.704 140.75 107.34 135.968 102.228L91.2316 179.714C90.0843 181.701 88.1923 183.149 85.9717 183.741C83.7511 184.332 81.3838 184.018 79.3906 182.867C77.3975 181.716 75.9417 179.823 75.3435 177.604C74.7453 175.386 75.0538 173.023 76.201 171.036L125.946 84.8744Z" fill="#1DB954"/>
<path d="M402.518 304.418L404.073 301.248C406.495 304.973 409.867 307.985 413.841 309.972C418.32 312.169 423.35 312.988 428.294 312.327C433.239 311.665 437.876 309.552 441.62 306.254C445.363 302.957 448.045 298.624 449.326 293.803C450.607 288.981 450.429 283.888 448.815 279.168C447.202 274.447 444.224 270.312 440.26 267.283C436.296 264.255 431.523 262.47 426.544 262.154C421.566 261.839 416.605 263.007 412.29 265.51C407.975 268.014 404.5 271.74 402.303 276.219L363.428 355.479L374.75 361.032" fill="#1DB954"/>
<defs>
<clipPath id="clip0_80_27">
<rect width="380.802" height="380.802" fill="white" transform="translate(72.4012 84.1934) rotate(30)"/>
</clipPath>
</defs>
</svg>
