<svg width="275" height="306" viewBox="0 0 275 306" fill="none" xmlns="http://www.w3.org/2000/svg">
<path fill-rule="evenodd" clip-rule="evenodd" d="M316.75 52.7916C246.744 52.7916 179.605 80.6015 130.103 130.103C80.6015 179.605 52.7917 246.744 52.7917 316.75C52.7917 318.75 51.9971 320.668 50.5828 322.083C49.1685 323.497 47.2502 324.292 45.25 324.292C43.2499 324.292 41.3316 323.497 39.9173 322.083C38.5029 320.668 37.7084 318.75 37.7084 316.75C37.7084 242.744 67.1073 171.768 119.438 119.438C171.768 67.1073 242.744 37.7083 316.75 37.7083C318.75 37.7083 320.668 38.5029 322.083 39.9172C323.497 41.3316 324.292 43.2498 324.292 45.25C324.292 47.2502 323.497 49.1684 322.083 50.5827C320.668 51.9971 318.75 52.7916 316.75 52.7916Z" fill="#1DB954"/>
<path fill-rule="evenodd" clip-rule="evenodd" d="M289.419 114.965C283.798 115.719 278.235 116.71 272.729 117.937L269.471 103.208C275.4 101.896 281.381 100.832 287.398 100.018L289.419 114.965ZM240.383 127.982C229.896 132.224 219.78 137.332 210.141 143.254L202.252 130.403C212.603 124.043 223.465 118.556 234.727 114L240.383 127.982ZM182.863 163.33C174.34 170.766 166.452 178.899 159.28 187.644L147.613 178.081C155.317 168.687 163.791 159.951 172.946 151.965L182.863 163.33ZM140.049 215.541C134.428 225.357 129.635 235.624 125.72 246.235L111.571 241.009C115.775 229.61 120.921 218.581 126.956 208.037L140.049 215.541ZM116.67 278.876C115.618 284.43 114.797 290.026 114.211 295.648L99.2107 294.08C99.8442 288.021 100.724 282.018 101.85 276.07L116.67 278.876ZM261.915 184.364C279.3 177.163 297.933 173.458 316.75 173.458C318.75 173.458 320.669 174.253 322.083 175.667C323.497 177.082 324.292 179 324.292 181C324.292 183 323.497 184.918 322.083 186.333C320.669 187.747 318.75 188.542 316.75 188.542C282.747 188.542 250.137 202.049 226.093 226.093C202.049 250.137 188.542 282.747 188.542 316.75C188.542 318.75 187.747 320.668 186.333 322.083C184.919 323.497 183 324.292 181 324.292C179 324.292 177.082 323.497 175.667 322.083C174.253 320.668 173.458 318.75 173.458 316.75C173.458 288.409 181.862 260.705 197.607 237.14C213.352 213.576 235.731 195.209 261.915 184.364Z" fill="#1DB954"/>
</svg>
