<svg width="477" height="83" viewBox="0 0 477 83" fill="none" xmlns="http://www.w3.org/2000/svg">
<path d="M60.0001 19.2499C59.9998 18.8994 59.9177 18.5538 59.7602 18.2407C59.6028 17.9276 59.3744 17.6555 59.0932 17.4463C58.812 17.2371 58.4858 17.0965 58.1406 17.0356C57.7954 16.9748 57.4408 16.9954 57.1051 17.0959L27.1051 26.0959C26.6415 26.2346 26.235 26.5191 25.9458 26.9071C25.6567 27.2951 25.5004 27.766 25.5001 28.2499V57.8809C23.5539 56.5259 21.2064 55.8696 18.8398 56.0189C16.4731 56.1681 14.2267 57.114 12.4661 58.7027C10.7056 60.2914 9.53468 62.4292 9.14399 64.7681C8.7533 67.1071 9.16585 69.5094 10.3145 71.584C11.4631 73.6586 13.2802 75.2833 15.4699 76.1936C17.6595 77.1039 20.0929 77.2462 22.3737 76.5973C24.6546 75.9484 26.6486 74.5465 28.0312 72.6199C29.4138 70.6933 30.1035 68.3554 29.9881 65.9869L30.0001 65.7499V41.9239L55.5001 34.2739V51.8839C53.5539 50.5289 51.2064 49.8726 48.8398 50.0219C46.4731 50.1711 44.2267 51.117 42.4661 52.7057C40.7056 54.2944 39.5347 56.4322 39.144 58.7711C38.7533 61.1101 39.1659 63.5124 40.3145 65.587C41.4631 67.6616 43.2802 69.2863 45.4699 70.1966C47.6595 71.1069 50.0929 71.2492 52.3737 70.6003C54.6546 69.9514 56.6486 68.5495 58.0312 66.6229C59.4138 64.6963 60.1035 62.3584 59.9881 59.9899L60.0001 59.7499V19.2499Z" fill="#1DB954"/>
<path d="M85.6957 11.2484C85.6954 10.8979 85.6133 10.5524 85.4559 10.2392C85.2984 9.92609 85.07 9.65407 84.7888 9.44485C84.5076 9.23563 84.1814 9.09499 83.8362 9.03416C83.4911 8.97332 83.1364 8.99396 82.8007 9.09443L53.1963 18C52.708 18.2632 52.708 18.2632 51.696 18.5342C50.7743 18.7809 50.696 19.0342 51.1957 20.2484L55.6957 34.5V51.9884C53.7495 50.6335 48.5627 51.8508 46.196 52C43.8293 52.1492 44.9565 55.178 43.196 56.7667C41.4355 58.3553 44.087 58.661 43.6963 61C43.3056 63.339 39.0474 63.4254 40.196 65.5C41.3446 67.5746 44.0063 67.0897 46.196 68C48.3857 68.9103 48.9148 68.6489 51.1957 68C53.6959 66.5 54.3131 67.4266 55.6957 65.5C57.0782 63.5734 58.8117 63.8685 58.6963 61.5L59.6961 57.9854V33.5L81.1957 26.2724V43.8824C79.2495 42.5275 76.9021 41.8712 74.5354 42.0204C72.1687 42.1696 69.9223 43.1156 68.1618 44.7042C66.4012 46.2929 65.2303 48.4307 64.8396 50.7697C64.4489 53.1086 64.8615 55.5109 66.0101 57.5856C67.1587 59.6602 68.9758 61.2849 71.1655 62.1952C73.3552 63.1054 75.7885 63.2477 78.0694 62.5988C80.3502 61.9499 82.3442 60.5481 83.7268 58.6215C85.1094 56.6949 85.7991 54.357 85.6837 51.9884L85.6957 51.7484V11.2484Z" fill="#1DB954"/>
<path d="M112.352 25.8182H115.523V43.1534C115.523 44.9432 115.101 46.5412 114.257 47.9474C113.422 49.3452 112.241 50.4489 110.716 51.2585C109.19 52.0597 107.401 52.4602 105.347 52.4602C103.293 52.4602 101.503 52.0597 99.9773 51.2585C98.4517 50.4489 97.267 49.3452 96.4233 47.9474C95.5881 46.5412 95.1705 44.9432 95.1705 43.1534V25.8182H98.3409V42.8977C98.3409 44.1761 98.6222 45.3139 99.1847 46.3111C99.7472 47.2997 100.548 48.0795 101.588 48.6506C102.636 49.2131 103.889 49.4943 105.347 49.4943C106.804 49.4943 108.057 49.2131 109.105 48.6506C110.153 48.0795 110.955 47.2997 111.509 46.3111C112.071 45.3139 112.352 44.1761 112.352 42.8977V25.8182ZM136.172 32.3636C136.019 31.0682 135.397 30.0625 134.306 29.3466C133.215 28.6307 131.877 28.2727 130.292 28.2727C129.132 28.2727 128.118 28.4602 127.249 28.8352C126.388 29.2102 125.715 29.7259 125.229 30.3821C124.752 31.0384 124.513 31.7841 124.513 32.6193C124.513 33.3182 124.679 33.919 125.012 34.4219C125.353 34.9162 125.787 35.3295 126.316 35.6619C126.844 35.9858 127.398 36.2543 127.978 36.4673C128.557 36.6719 129.09 36.8381 129.576 36.9659L132.235 37.6818C132.917 37.8608 133.675 38.108 134.51 38.4233C135.354 38.7386 136.159 39.169 136.926 39.7145C137.702 40.2514 138.341 40.9418 138.844 41.7855C139.347 42.6293 139.598 43.6648 139.598 44.892C139.598 46.3068 139.228 47.5852 138.486 48.7273C137.753 49.8693 136.679 50.777 135.265 51.4503C133.858 52.1236 132.15 52.4602 130.138 52.4602C128.263 52.4602 126.64 52.1577 125.267 51.5526C123.904 50.9474 122.83 50.1037 122.046 49.0213C121.27 47.9389 120.831 46.6818 120.729 45.25H124.002C124.087 46.2386 124.419 47.0568 124.999 47.7045C125.587 48.3437 126.328 48.821 127.223 49.1364C128.127 49.4432 129.098 49.5966 130.138 49.5966C131.348 49.5966 132.435 49.4006 133.398 49.0085C134.361 48.608 135.124 48.054 135.686 47.3466C136.249 46.6307 136.53 45.7955 136.53 44.8409C136.53 43.9716 136.287 43.2642 135.801 42.7188C135.316 42.1733 134.676 41.7301 133.884 41.3892C133.091 41.0483 132.235 40.75 131.314 40.4943L128.093 39.5739C126.047 38.9858 124.428 38.1463 123.235 37.0554C122.042 35.9645 121.445 34.5369 121.445 32.7727C121.445 31.3068 121.841 30.0284 122.634 28.9375C123.435 27.8381 124.509 26.9858 125.855 26.3807C127.211 25.767 128.723 25.4602 130.394 25.4602C132.081 25.4602 133.581 25.7628 134.894 26.3679C136.206 26.9645 137.246 27.7827 138.013 28.8224C138.789 29.8622 139.198 31.0426 139.24 32.3636H136.172ZM147.982 25.8182V52H144.811V25.8182H147.982ZM175.407 34H172.236C172.049 33.0881 171.721 32.2869 171.252 31.5966C170.792 30.9062 170.229 30.3267 169.564 29.858C168.908 29.3807 168.179 29.0227 167.378 28.7841C166.577 28.5455 165.742 28.4261 164.873 28.4261C163.287 28.4261 161.851 28.8267 160.564 29.6278C159.286 30.429 158.267 31.6094 157.509 33.169C156.759 34.7287 156.384 36.642 156.384 38.9091C156.384 41.1761 156.759 43.0895 157.509 44.6491C158.267 46.2088 159.286 47.3892 160.564 48.1903C161.851 48.9915 163.287 49.392 164.873 49.392C165.742 49.392 166.577 49.2727 167.378 49.0341C168.179 48.7955 168.908 48.4418 169.564 47.973C170.229 47.4957 170.792 46.9119 171.252 46.2216C171.721 45.5227 172.049 44.7216 172.236 43.8182H175.407C175.168 45.1562 174.733 46.3537 174.103 47.4105C173.472 48.4673 172.688 49.3665 171.75 50.108C170.813 50.8409 169.76 51.3991 168.593 51.7827C167.434 52.1662 166.194 52.358 164.873 52.358C162.64 52.358 160.654 51.8125 158.915 50.7216C157.176 49.6307 155.809 48.0795 154.811 46.0682C153.814 44.0568 153.316 41.6705 153.316 38.9091C153.316 36.1477 153.814 33.7614 154.811 31.75C155.809 29.7386 157.176 28.1875 158.915 27.0966C160.654 26.0057 162.64 25.4602 164.873 25.4602C166.194 25.4602 167.434 25.652 168.593 26.0355C169.76 26.419 170.813 26.9815 171.75 27.723C172.688 28.456 173.472 29.3509 174.103 30.4077C174.733 31.456 175.168 32.6534 175.407 34ZM181.604 52H178.28L187.893 25.8182H191.166L200.78 52H197.456L189.632 29.9602H189.428L181.604 52ZM182.831 41.7727H196.229V44.5852H182.831V41.7727ZM204.858 52V25.8182H208.028V49.1875H220.199V52H204.858ZM235.233 25.8182H239.017L247.915 47.5511H248.222L257.119 25.8182H260.903V52H257.938V32.108H257.682L249.5 52H246.636L238.455 32.108H238.199V52H235.233V25.8182ZM267.26 52V25.8182H283.061V28.6307H270.431V37.4773H282.243V40.2898H270.431V49.1875H283.266V52H267.26ZM288.776 25.8182H292.56L301.458 47.5511H301.765L310.662 25.8182H314.446V52H311.48V32.108H311.225L303.043 52H300.179L291.998 32.108H291.742V52H288.776V25.8182ZM342.894 38.9091C342.894 41.6705 342.396 44.0568 341.398 46.0682C340.401 48.0795 339.033 49.6307 337.295 50.7216C335.556 51.8125 333.57 52.358 331.337 52.358C329.104 52.358 327.119 51.8125 325.38 50.7216C323.641 49.6307 322.273 48.0795 321.276 46.0682C320.279 44.0568 319.781 41.6705 319.781 38.9091C319.781 36.1477 320.279 33.7614 321.276 31.75C322.273 29.7386 323.641 28.1875 325.38 27.0966C327.119 26.0057 329.104 25.4602 331.337 25.4602C333.57 25.4602 335.556 26.0057 337.295 27.0966C339.033 28.1875 340.401 29.7386 341.398 31.75C342.396 33.7614 342.894 36.1477 342.894 38.9091ZM339.826 38.9091C339.826 36.642 339.447 34.7287 338.688 33.169C337.938 31.6094 336.92 30.429 335.633 29.6278C334.354 28.8267 332.923 28.4261 331.337 28.4261C329.752 28.4261 328.316 28.8267 327.029 29.6278C325.751 30.429 324.732 31.6094 323.974 33.169C323.224 34.7287 322.849 36.642 322.849 38.9091C322.849 41.1761 323.224 43.0895 323.974 44.6491C324.732 46.2088 325.751 47.3892 327.029 48.1903C328.316 48.9915 329.752 49.392 331.337 49.392C332.923 49.392 334.354 48.9915 335.633 48.1903C336.92 47.3892 337.938 46.2088 338.688 44.6491C339.447 43.0895 339.826 41.1761 339.826 38.9091ZM348.225 52V25.8182H357.072C359.117 25.8182 360.796 26.1676 362.109 26.8665C363.421 27.5568 364.393 28.5071 365.023 29.7173C365.654 30.9276 365.969 32.304 365.969 33.8466C365.969 35.3892 365.654 36.7571 365.023 37.9503C364.393 39.1435 363.425 40.081 362.121 40.7628C360.817 41.4361 359.151 41.7727 357.123 41.7727H349.964V38.9091H357.021C358.418 38.9091 359.543 38.7045 360.396 38.2955C361.256 37.8864 361.879 37.3068 362.262 36.5568C362.654 35.7983 362.85 34.8949 362.85 33.8466C362.85 32.7983 362.654 31.8821 362.262 31.098C361.87 30.3139 361.244 29.7088 360.383 29.2827C359.522 28.848 358.384 28.6307 356.969 28.6307H351.396V52H348.225ZM360.549 40.2386L366.992 52H363.31L356.969 40.2386H360.549ZM374.423 25.8182V52H371.252V25.8182H374.423ZM380.78 52V25.8182H396.581V28.6307H383.95V37.4773H395.763V40.2898H383.95V49.1875H396.786V52H380.78ZM416.614 32.3636C416.46 31.0682 415.838 30.0625 414.747 29.3466C413.656 28.6307 412.318 28.2727 410.733 28.2727C409.574 28.2727 408.56 28.4602 407.69 28.8352C406.83 29.2102 406.156 29.7259 405.67 30.3821C405.193 31.0384 404.955 31.7841 404.955 32.6193C404.955 33.3182 405.121 33.919 405.453 34.4219C405.794 34.9162 406.229 35.3295 406.757 35.6619C407.286 35.9858 407.839 36.2543 408.419 36.4673C408.999 36.6719 409.531 36.8381 410.017 36.9659L412.676 37.6818C413.358 37.8608 414.116 38.108 414.952 38.4233C415.795 38.7386 416.601 39.169 417.368 39.7145C418.143 40.2514 418.783 40.9418 419.286 41.7855C419.788 42.6293 420.04 43.6648 420.04 44.892C420.04 46.3068 419.669 47.5852 418.928 48.7273C418.195 49.8693 417.121 50.777 415.706 51.4503C414.3 52.1236 412.591 52.4602 410.58 52.4602C408.705 52.4602 407.081 52.1577 405.709 51.5526C404.345 50.9474 403.271 50.1037 402.487 49.0213C401.712 47.9389 401.273 46.6818 401.17 45.25H404.443C404.528 46.2386 404.861 47.0568 405.44 47.7045C406.028 48.3437 406.77 48.821 407.665 49.1364C408.568 49.4432 409.54 49.5966 410.58 49.5966C411.79 49.5966 412.876 49.4006 413.839 49.0085C414.803 48.608 415.565 48.054 416.128 47.3466C416.69 46.6307 416.972 45.7955 416.972 44.8409C416.972 43.9716 416.729 43.2642 416.243 42.7188C415.757 42.1733 415.118 41.7301 414.325 41.3892C413.533 41.0483 412.676 40.75 411.756 40.4943L408.534 39.5739C406.489 38.9858 404.869 38.1463 403.676 37.0554C402.483 35.9645 401.886 34.5369 401.886 32.7727C401.886 31.3068 402.283 30.0284 403.075 28.9375C403.876 27.8381 404.95 26.9858 406.297 26.3807C407.652 25.767 409.165 25.4602 410.835 25.4602C412.523 25.4602 414.023 25.7628 415.335 26.3679C416.648 26.9645 417.688 27.7827 418.455 28.8224C419.23 29.8622 419.639 31.0426 419.682 32.3636H416.614Z" fill="#1DB954"/>
</svg>
