<svg width="787" height="787" viewBox="0 0 787 787" fill="none" xmlns="http://www.w3.org/2000/svg">
<circle cx="393.5" cy="393.5" r="393.5" fill="#090909"/>
<circle cx="393.5" cy="393.5" r="393.5" fill="#1D1D1D" fill-opacity="0.2"/>
<circle cx="391" cy="397" r="150" fill="#207E41" fill-opacity="0.53"/>
<path d="M279.145 496.866L278.137 495.653L282.731 487.013L282.649 486.915L273.316 489.853L272.308 488.641L280.697 481.667L281.487 482.617L275.113 487.916L275.181 487.997L283.734 485.32L284.497 486.238L280.303 494.158L280.371 494.24L286.744 488.941L287.534 489.892L279.145 496.866ZM266.59 480.682L265.831 479.601L271.743 475.451C272.353 475.022 272.999 474.784 273.681 474.735C274.357 474.685 275.016 474.824 275.657 475.15C276.296 475.478 276.861 475.993 277.353 476.693C277.844 477.394 278.136 478.1 278.228 478.812C278.317 479.526 278.224 480.195 277.95 480.817C277.67 481.438 277.225 481.963 276.615 482.392L270.703 486.542L269.944 485.46L275.768 481.372C276.204 481.066 276.525 480.697 276.731 480.267C276.933 479.838 277.007 479.379 276.953 478.887C276.894 478.395 276.69 477.9 276.341 477.403C275.992 476.906 275.596 476.546 275.154 476.324C274.708 476.103 274.25 476.016 273.78 476.064C273.306 476.111 272.85 476.287 272.414 476.593L266.59 480.682ZM263.637 470.878C263.208 471.213 262.984 471.651 262.964 472.195C262.944 472.738 263.105 473.292 263.447 473.857C263.697 474.271 263.982 474.592 264.304 474.821C264.623 475.047 264.952 475.175 265.291 475.207C265.628 475.236 265.945 475.16 266.243 474.98C266.492 474.829 266.67 474.64 266.778 474.413C266.88 474.185 266.934 473.941 266.939 473.681C266.94 473.423 266.916 473.167 266.867 472.915C266.815 472.664 266.759 472.438 266.7 472.237L266.382 471.135C266.299 470.853 266.223 470.53 266.155 470.164C266.086 469.795 266.066 469.415 266.095 469.024C266.119 468.632 266.227 468.255 266.419 467.894C266.612 467.532 266.927 467.219 267.364 466.955C267.868 466.65 268.404 466.506 268.971 466.524C269.536 466.539 270.092 466.726 270.637 467.085C271.18 467.441 271.669 467.978 272.103 468.695C272.507 469.363 272.749 470.007 272.83 470.627C272.908 471.244 272.839 471.808 272.622 472.321C272.404 472.831 272.05 473.259 271.562 473.604L270.856 472.438C271.19 472.194 271.41 471.899 271.516 471.553C271.617 471.205 271.627 470.838 271.546 470.451C271.461 470.063 271.306 469.683 271.082 469.312C270.821 468.881 270.516 468.536 270.169 468.277C269.818 468.02 269.456 467.868 269.083 467.82C268.706 467.774 268.348 467.854 268.008 468.06C267.698 468.247 267.498 468.486 267.408 468.777C267.319 469.068 267.298 469.391 267.348 469.747C267.397 470.104 267.476 470.473 267.583 470.857L267.95 472.204C268.181 473.06 268.231 473.818 268.1 474.479C267.968 475.139 267.588 475.66 266.959 476.04C266.437 476.357 265.895 476.491 265.336 476.444C264.771 476.395 264.235 476.196 263.729 475.847C263.218 475.496 262.782 475.023 262.422 474.427C262.058 473.826 261.842 473.226 261.775 472.627C261.705 472.031 261.772 471.484 261.977 470.986C262.181 470.485 262.513 470.085 262.975 469.785L263.637 470.878ZM258.864 468.02L268.452 462.816L269.082 463.977L259.495 469.181L258.864 468.02ZM256.925 456.275L257.498 457.465C257.189 457.7 256.947 457.968 256.773 458.269C256.597 458.566 256.481 458.882 256.425 459.216C256.364 459.549 256.361 459.887 256.417 460.231C256.472 460.575 256.578 460.91 256.735 461.237C257.021 461.832 257.431 462.299 257.964 462.637C258.496 462.973 259.123 463.142 259.846 463.145C260.567 463.145 261.353 462.94 262.204 462.53C263.055 462.121 263.706 461.634 264.156 461.071C264.605 460.505 264.864 459.909 264.934 459.284C265.002 458.656 264.893 458.045 264.607 457.449C264.45 457.123 264.254 456.831 264.02 456.573C263.786 456.316 263.521 456.106 263.227 455.944C262.927 455.781 262.607 455.675 262.264 455.627C261.917 455.577 261.557 455.599 261.184 455.691L260.611 454.501C261.157 454.349 261.685 454.296 262.196 454.342C262.706 454.388 263.186 454.52 263.633 454.738C264.078 454.957 264.478 455.252 264.833 455.621C265.186 455.987 265.482 456.418 265.721 456.914C266.124 457.752 266.278 458.596 266.182 459.446C266.087 460.296 265.751 461.09 265.176 461.828C264.601 462.565 263.795 463.184 262.758 463.682C261.722 464.181 260.736 464.425 259.8 464.414C258.865 464.403 258.035 464.169 257.312 463.714C256.588 463.258 256.025 462.611 255.621 461.772C255.383 461.276 255.231 460.776 255.165 460.272C255.098 459.764 255.119 459.267 255.228 458.781C255.334 458.297 255.529 457.841 255.812 457.413C256.091 456.987 256.462 456.607 256.925 456.275ZM262.987 451.351L263.498 452.638L251.881 452.943L251.377 451.675L260.037 443.925L260.548 445.212L253.217 451.632L253.249 451.711L262.987 451.351ZM258.838 452.449L256.777 447.261L257.866 446.828L259.927 452.016L258.838 452.449ZM259.718 442.957L249.349 446.348L248.939 445.092L258.193 442.065L256.617 437.246L257.731 436.881L259.718 442.957ZM245.714 434.234L245.379 432.693L253.441 427.148L253.414 427.023L243.778 425.322L243.443 423.781L254.104 421.465L254.366 422.673L246.267 424.433L246.289 424.537L255.112 426.109L255.366 427.275L247.99 432.365L248.013 432.47L256.112 430.71L256.374 431.918L245.714 434.234ZM253.783 419.667L242.979 421.18L242.066 414.66L243.227 414.497L243.956 419.709L247.607 419.198L246.924 414.324L248.085 414.161L248.767 419.036L252.439 418.521L251.697 413.225L252.858 413.063L253.783 419.667ZM241.832 412.293L241.728 410.72L250.519 406.423L250.511 406.296L241.23 403.194L241.126 401.621L252.012 400.901L252.093 402.134L243.823 402.681L243.83 402.787L252.325 405.642L252.404 406.833L244.359 410.781L244.366 410.887L252.636 410.341L252.717 411.574L241.832 412.293ZM246.66 389.863C247.811 389.881 248.802 390.105 249.633 390.534C250.464 390.962 251.101 391.542 251.544 392.274C251.987 393.006 252.202 393.837 252.187 394.767C252.172 395.697 251.932 396.521 251.466 397.238C251 397.955 250.344 398.515 249.5 398.917C248.655 399.319 247.658 399.511 246.507 399.493C245.357 399.474 244.366 399.251 243.535 398.822C242.703 398.393 242.066 397.813 241.623 397.082C241.18 396.35 240.966 395.519 240.981 394.589C240.996 393.658 241.236 392.835 241.702 392.118C242.168 391.401 242.823 390.841 243.668 390.439C244.512 390.037 245.51 389.845 246.66 389.863ZM246.64 391.141C245.695 391.126 244.896 391.272 244.241 391.577C243.586 391.879 243.088 392.296 242.745 392.827C242.403 393.354 242.227 393.948 242.216 394.608C242.206 395.269 242.363 395.87 242.689 396.411C243.014 396.949 243.499 397.381 244.144 397.708C244.788 398.03 245.583 398.199 246.528 398.214C247.472 398.229 248.272 398.086 248.926 397.784C249.581 397.478 250.08 397.061 250.422 396.534C250.764 396.003 250.941 395.408 250.951 394.747C250.962 394.087 250.804 393.488 250.479 392.95C250.154 392.408 249.669 391.976 249.024 391.653C248.379 391.327 247.584 391.156 246.64 391.141ZM252.203 388.497L241.334 387.563L241.649 383.89C241.722 383.041 241.927 382.356 242.264 381.837C242.598 381.316 243.027 380.947 243.552 380.728C244.077 380.51 244.659 380.428 245.3 380.483C245.94 380.538 246.497 380.718 246.97 381.022C247.442 381.326 247.797 381.761 248.034 382.327C248.267 382.892 248.347 383.596 248.275 384.438L248.019 387.41L246.83 387.308L247.082 384.379C247.132 383.798 247.087 383.324 246.948 382.956C246.809 382.584 246.59 382.305 246.293 382.119C245.992 381.929 245.624 381.815 245.189 381.778C244.753 381.74 244.366 381.789 244.027 381.924C243.687 382.059 243.413 382.297 243.206 382.639C242.995 382.981 242.864 383.446 242.813 384.033L242.614 386.347L252.316 387.181L252.203 388.497ZM247.76 382.961L252.872 380.706L252.741 382.235L247.632 384.447L247.76 382.961ZM242.384 376.701L253.202 378.115L253.03 379.425L242.213 378.011L242.384 376.701ZM253.53 375.956L242.783 374.084L243.913 367.598L245.067 367.799L244.164 372.983L247.796 373.616L248.64 368.767L249.795 368.968L248.95 373.817L252.603 374.453L253.52 369.184L254.675 369.385L253.53 375.956ZM248.451 360.109C247.912 360.045 247.444 360.198 247.047 360.571C246.651 360.943 246.375 361.45 246.221 362.092C246.108 362.561 246.085 362.991 246.152 363.379C246.22 363.765 246.363 364.088 246.581 364.348C246.801 364.606 247.08 364.775 247.418 364.857C247.701 364.925 247.961 364.916 248.197 364.83C248.43 364.741 248.64 364.605 248.826 364.423C249.009 364.241 249.172 364.042 249.315 363.828C249.454 363.614 249.573 363.414 249.672 363.23L250.222 362.222C250.361 361.964 250.535 361.681 250.744 361.373C250.954 361.062 251.207 360.778 251.503 360.52C251.796 360.258 252.138 360.067 252.529 359.945C252.92 359.824 253.364 359.823 253.861 359.943C254.434 360.081 254.916 360.356 255.306 360.767C255.697 361.176 255.96 361.699 256.095 362.338C256.23 362.973 256.2 363.698 256.004 364.513C255.821 365.273 255.54 365.901 255.161 366.398C254.783 366.891 254.337 367.244 253.822 367.456C253.307 367.664 252.755 367.72 252.165 367.621L252.485 366.296C252.893 366.358 253.257 366.303 253.576 366.131C253.892 365.955 254.158 365.701 254.373 365.37C254.586 365.034 254.742 364.655 254.844 364.234C254.962 363.744 254.988 363.284 254.924 362.856C254.855 362.427 254.705 362.064 254.474 361.767C254.238 361.469 253.927 361.274 253.541 361.181C253.189 361.096 252.878 361.125 252.61 361.269C252.342 361.412 252.1 361.628 251.884 361.916C251.669 362.204 251.465 362.522 251.271 362.87L250.584 364.085C250.147 364.856 249.649 365.43 249.09 365.807C248.532 366.184 247.895 366.287 247.181 366.114C246.587 365.972 246.108 365.686 245.743 365.259C245.376 364.827 245.135 364.309 245.022 363.704C244.905 363.096 244.928 362.453 245.091 361.776C245.256 361.093 245.525 360.514 245.898 360.042C246.268 359.568 246.7 359.227 247.196 359.018C247.693 358.805 248.211 358.754 248.751 358.866L248.451 360.109ZM247.945 351.959L248.472 350.473L258.246 350.006L258.288 349.886L250.994 343.364L251.521 341.878L261.802 345.526L261.389 346.69L253.578 343.919L253.542 344.02L260.213 350.004L259.815 351.128L250.863 351.57L250.828 351.67L258.639 354.442L258.226 355.606L247.945 351.959ZM255.443 332.899L255.985 331.694L262.572 334.658C263.252 334.964 263.787 335.397 264.177 335.958C264.565 336.514 264.783 337.152 264.829 337.87C264.873 338.586 264.719 339.335 264.368 340.115C264.017 340.896 263.559 341.507 262.994 341.95C262.425 342.391 261.803 342.653 261.128 342.735C260.451 342.811 259.772 342.697 259.092 342.391L252.505 339.427L253.047 338.223L259.537 341.143C260.023 341.361 260.503 341.449 260.978 341.406C261.45 341.361 261.883 341.19 262.278 340.892C262.671 340.59 262.992 340.162 263.241 339.608C263.49 339.055 263.598 338.53 263.563 338.036C263.525 337.54 263.366 337.102 263.085 336.723C262.802 336.339 262.418 336.037 261.932 335.819L255.443 332.899ZM262.366 325.357C261.86 325.159 261.368 325.19 260.891 325.45C260.413 325.71 260.019 326.131 259.707 326.713C259.479 327.139 259.349 327.549 259.316 327.942C259.284 328.332 259.341 328.68 259.487 328.988C259.634 329.292 259.861 329.526 260.168 329.691C260.425 329.828 260.678 329.885 260.928 329.862C261.177 329.834 261.414 329.755 261.64 329.626C261.863 329.496 262.071 329.345 262.263 329.174C262.452 329.001 262.618 328.838 262.76 328.685L263.546 327.849C263.746 327.633 263.985 327.403 264.265 327.158C264.547 326.91 264.864 326.699 265.215 326.525C265.564 326.345 265.944 326.246 266.353 326.227C266.761 326.208 267.191 326.319 267.642 326.561C268.162 326.839 268.559 327.226 268.833 327.723C269.108 328.217 269.23 328.79 269.2 329.442C269.171 330.091 268.959 330.785 268.563 331.524C268.195 332.213 267.764 332.75 267.272 333.135C266.782 333.517 266.261 333.746 265.709 333.821C265.159 333.893 264.611 333.807 264.065 333.563L264.708 332.361C265.088 332.524 265.454 332.563 265.806 332.477C266.156 332.387 266.477 332.208 266.769 331.941C267.059 331.67 267.307 331.343 267.511 330.961C267.749 330.516 267.891 330.078 267.936 329.648C267.978 329.215 267.924 328.826 267.775 328.48C267.623 328.133 267.371 327.865 267.02 327.678C266.701 327.507 266.393 327.457 266.097 327.528C265.802 327.6 265.513 327.747 265.232 327.972C264.951 328.196 264.673 328.452 264.398 328.74L263.427 329.742C262.809 330.378 262.182 330.808 261.547 331.032C260.911 331.256 260.27 331.195 259.622 330.848C259.083 330.56 258.691 330.163 258.446 329.657C258.2 329.147 258.098 328.585 258.14 327.971C258.181 327.353 258.365 326.737 258.694 326.123C259.025 325.503 259.431 325.011 259.912 324.648C260.389 324.283 260.894 324.062 261.427 323.985C261.961 323.904 262.475 323.986 262.969 324.23L262.366 325.357ZM262.389 319.794L271.757 325.384L271.08 326.518L261.712 320.929L262.389 319.794ZM271.5 312.132L270.768 313.232C270.409 313.087 270.055 313.016 269.707 313.019C269.362 313.019 269.031 313.081 268.715 313.203C268.398 313.321 268.106 313.491 267.838 313.714C267.57 313.937 267.336 314.199 267.136 314.501C266.77 315.051 266.578 315.642 266.559 316.273C266.542 316.901 266.716 317.527 267.082 318.15C267.45 318.77 268.028 319.342 268.814 319.865C269.601 320.388 270.351 320.699 271.065 320.799C271.782 320.895 272.426 320.814 272.999 320.556C273.574 320.294 274.044 319.888 274.41 319.338C274.611 319.036 274.762 318.719 274.864 318.386C274.966 318.053 275.011 317.719 275 317.383C274.988 317.042 274.915 316.712 274.782 316.393C274.647 316.069 274.445 315.771 274.175 315.497L274.906 314.397C275.316 314.789 275.631 315.216 275.852 315.678C276.073 316.141 276.204 316.621 276.245 317.117C276.283 317.611 276.234 318.105 276.098 318.599C275.963 319.09 275.744 319.564 275.439 320.022C274.924 320.797 274.276 321.36 273.497 321.712C272.717 322.063 271.863 322.18 270.935 322.062C270.008 321.944 269.065 321.566 268.106 320.929C267.148 320.292 266.435 319.569 265.968 318.759C265.5 317.949 265.277 317.116 265.3 316.261C265.323 315.406 265.591 314.591 266.107 313.817C266.411 313.358 266.764 312.972 267.165 312.659C267.567 312.342 268.005 312.107 268.479 311.952C268.949 311.796 269.441 311.731 269.953 311.756C270.462 311.779 270.978 311.904 271.5 312.132ZM278.833 314.823L277.988 315.92L271.788 306.091L272.62 305.011L283.707 308.492L282.863 309.589L273.597 306.57L273.545 306.638L278.833 314.823ZM275.768 311.818L279.174 307.395L280.103 308.11L276.697 312.533L275.768 311.818ZM284.369 307.734L276.163 300.545L277.034 299.551L284.358 305.968L287.7 302.153L288.581 302.926L284.369 307.734ZM284.724 291.234L285.875 290.156L294.77 294.232L294.864 294.145L291.381 285.001L292.532 283.923L299.988 291.886L299.086 292.731L293.421 286.681L293.343 286.754L296.52 295.134L295.649 295.949L287.495 292.229L287.417 292.302L293.082 298.352L292.18 299.197L284.724 291.234ZM301.371 290.684L294.526 282.19L299.652 278.059L300.388 278.971L296.29 282.274L298.603 285.144L302.435 282.055L303.17 282.968L299.338 286.056L301.664 288.943L305.828 285.587L306.564 286.5L301.371 290.684ZM301.564 276.644L302.861 275.749L311.056 281.095L311.162 281.023L309.069 271.464L310.367 270.569L316.563 279.547L315.546 280.249L310.838 273.428L310.751 273.488L312.653 282.246L311.671 282.924L304.157 278.039L304.069 278.099L308.777 284.921L307.76 285.623L301.564 276.644ZM323.299 269.3C323.872 270.298 324.188 271.263 324.245 272.197C324.303 273.131 324.131 273.975 323.729 274.73C323.328 275.485 322.724 276.095 321.917 276.558C321.11 277.022 320.28 277.237 319.425 277.204C318.571 277.171 317.754 276.895 316.977 276.376C316.199 275.856 315.523 275.098 314.95 274.1C314.376 273.103 314.061 272.137 314.003 271.203C313.946 270.27 314.118 269.425 314.519 268.67C314.921 267.915 315.525 267.306 316.331 266.842C317.138 266.378 317.969 266.163 318.823 266.196C319.678 266.229 320.494 266.505 321.272 267.025C322.05 267.544 322.725 268.303 323.299 269.3ZM322.191 269.937C321.72 269.119 321.185 268.506 320.588 268.1C319.993 267.693 319.38 267.478 318.748 267.456C318.12 267.432 317.52 267.584 316.947 267.913C316.375 268.243 315.939 268.686 315.641 269.242C315.345 269.797 315.222 270.435 315.272 271.156C315.325 271.875 315.587 272.644 316.058 273.463C316.529 274.282 317.061 274.895 317.656 275.303C318.254 275.709 318.867 275.924 319.495 275.948C320.127 275.97 320.729 275.816 321.301 275.487C321.874 275.158 322.308 274.716 322.603 274.161C322.902 273.604 323.025 272.966 322.972 272.247C322.922 271.526 322.661 270.756 322.191 269.937ZM327.31 273.362L322.547 263.548L325.863 261.938C326.629 261.566 327.322 261.392 327.942 261.415C328.559 261.435 329.096 261.614 329.553 261.953C330.009 262.292 330.378 262.751 330.659 263.329C330.939 263.907 331.07 264.477 331.051 265.039C331.031 265.601 330.839 266.129 330.474 266.622C330.108 267.111 329.545 267.541 328.784 267.91L326.101 269.212L325.58 268.139L328.225 266.855C328.749 266.6 329.134 266.319 329.379 266.011C329.627 265.701 329.755 265.37 329.762 265.019C329.771 264.664 329.68 264.289 329.489 263.897C329.299 263.504 329.058 263.196 328.769 262.973C328.479 262.751 328.134 262.638 327.734 262.635C327.332 262.628 326.866 262.754 326.336 263.011L324.247 264.025L328.498 272.785L327.31 273.362ZM329.79 266.711L334.344 269.948L332.964 270.618L328.448 267.362L329.79 266.711ZM332.416 258.894L336.72 268.918L335.506 269.439L331.202 259.415L332.416 258.894ZM338.742 268.1L334.871 257.901L341.026 255.565L341.442 256.661L336.522 258.528L337.829 261.974L342.431 260.228L342.847 261.324L338.245 263.07L339.561 266.536L344.561 264.638L344.977 265.734L338.742 268.1ZM349.783 255.64C349.562 255.143 349.191 254.82 348.668 254.669C348.146 254.518 347.569 254.541 346.938 254.736C346.477 254.879 346.096 255.079 345.797 255.335C345.5 255.59 345.296 255.879 345.183 256.2C345.074 256.52 345.071 256.846 345.174 257.178C345.26 257.456 345.4 257.675 345.594 257.834C345.791 257.989 346.015 258.1 346.266 258.167C346.517 258.231 346.77 258.27 347.027 258.283C347.283 258.293 347.515 258.294 347.725 258.285L348.871 258.242C349.165 258.229 349.497 258.234 349.868 258.257C350.243 258.278 350.617 258.35 350.989 258.473C351.364 258.591 351.703 258.787 352.008 259.061C352.312 259.335 352.539 259.716 352.691 260.204C352.865 260.768 352.875 261.322 352.72 261.868C352.569 262.413 352.254 262.906 351.774 263.349C351.297 263.79 350.658 264.135 349.858 264.382C349.111 264.613 348.428 264.693 347.807 264.621C347.19 264.549 346.658 264.345 346.213 264.011C345.771 263.676 345.441 263.229 345.224 262.672L346.527 262.269C346.682 262.652 346.916 262.936 347.226 263.123C347.539 263.305 347.893 263.403 348.288 263.419C348.685 263.429 349.091 263.371 349.505 263.243C349.986 263.094 350.395 262.882 350.73 262.607C351.064 262.329 351.299 262.014 351.436 261.663C351.572 261.309 351.581 260.942 351.463 260.562C351.356 260.216 351.172 259.964 350.911 259.807C350.651 259.65 350.342 259.552 349.984 259.514C349.627 259.476 349.249 259.463 348.851 259.475L347.456 259.505C346.569 259.523 345.821 259.389 345.212 259.101C344.602 258.814 344.189 258.32 343.972 257.617C343.791 257.034 343.791 256.476 343.972 255.944C344.156 255.408 344.478 254.936 344.94 254.53C345.403 254.118 345.968 253.81 346.633 253.604C347.304 253.396 347.939 253.332 348.535 253.411C349.131 253.487 349.646 253.684 350.08 254.004C350.516 254.322 350.825 254.741 351.004 255.262L349.783 255.64ZM356.53 251.045L358.077 250.738L363.476 258.899L363.601 258.874L365.475 249.27L367.022 248.963L369.145 259.663L367.933 259.904L366.32 251.774L366.215 251.795L364.485 260.588L363.314 260.821L358.357 253.354L358.253 253.375L359.866 261.505L358.654 261.745L356.53 251.045ZM376.745 247.745L378.057 247.595L378.876 254.771C378.96 255.512 378.861 256.194 378.578 256.816C378.299 257.434 377.862 257.946 377.269 258.354C376.675 258.757 375.953 259.008 375.103 259.105C374.252 259.202 373.493 259.12 372.823 258.861C372.153 258.598 371.611 258.197 371.196 257.658C370.783 257.115 370.535 256.473 370.45 255.732L369.632 248.556L370.944 248.406L371.751 255.477C371.811 256.006 371.981 256.464 372.261 256.85C372.541 257.233 372.909 257.518 373.367 257.705C373.827 257.888 374.359 257.946 374.963 257.877C375.566 257.808 376.071 257.632 376.479 257.35C376.886 257.064 377.181 256.704 377.363 256.268C377.549 255.829 377.612 255.344 377.551 254.815L376.745 247.745ZM386.763 249.851C386.676 249.314 386.398 248.907 385.931 248.629C385.464 248.351 384.9 248.226 384.241 248.255C383.758 248.277 383.339 248.373 382.984 248.545C382.633 248.717 382.362 248.944 382.172 249.226C381.985 249.508 381.899 249.823 381.915 250.17C381.927 250.461 382.008 250.708 382.155 250.912C382.306 251.111 382.495 251.275 382.721 251.404C382.946 251.529 383.182 251.631 383.427 251.709C383.672 251.783 383.897 251.843 384.101 251.887L385.221 252.137C385.508 252.199 385.829 252.288 386.182 252.404C386.539 252.52 386.882 252.684 387.212 252.897C387.544 253.106 387.823 253.382 388.048 253.724C388.272 254.066 388.396 254.493 388.418 255.003C388.444 255.592 388.313 256.131 388.026 256.62C387.741 257.109 387.311 257.506 386.734 257.813C386.161 258.119 385.456 258.29 384.619 258.327C383.838 258.361 383.157 258.265 382.575 258.038C381.996 257.811 381.534 257.479 381.187 257.043C380.845 256.607 380.639 256.091 380.57 255.497L381.933 255.437C381.986 255.847 382.139 256.182 382.393 256.441C382.649 256.696 382.966 256.881 383.345 256.996C383.726 257.108 384.134 257.154 384.566 257.135C385.07 257.113 385.519 257.011 385.913 256.83C386.306 256.646 386.614 256.401 386.835 256.097C387.056 255.788 387.158 255.436 387.14 255.038C387.124 254.676 387.01 254.386 386.798 254.168C386.586 253.95 386.312 253.777 385.976 253.65C385.639 253.522 385.277 253.414 384.89 253.324L383.532 253C382.67 252.792 381.98 252.473 381.464 252.04C380.947 251.608 380.672 251.025 380.64 250.29C380.613 249.68 380.755 249.141 381.065 248.672C381.378 248.2 381.81 247.825 382.359 247.549C382.912 247.269 383.536 247.113 384.232 247.083C384.934 247.052 385.564 247.151 386.121 247.378C386.679 247.603 387.127 247.924 387.465 248.343C387.807 248.762 387.999 249.246 388.04 249.795L386.763 249.851ZM391.56 247.025L391.567 257.934L390.246 257.935L390.239 247.026L391.56 247.025ZM402.812 250.914L401.492 250.851C401.432 250.467 401.312 250.127 401.131 249.831C400.953 249.534 400.73 249.282 400.463 249.073C400.199 248.862 399.903 248.698 399.575 248.583C399.246 248.467 398.901 248.401 398.539 248.384C397.879 248.352 397.274 248.49 396.722 248.797C396.174 249.105 395.726 249.576 395.379 250.21C395.036 250.844 394.842 251.633 394.796 252.577C394.751 253.52 394.869 254.324 395.15 254.988C395.434 255.652 395.834 256.164 396.35 256.523C396.87 256.882 397.46 257.078 398.119 257.109C398.481 257.127 398.831 257.094 399.169 257.01C399.508 256.927 399.818 256.794 400.1 256.613C400.387 256.427 400.632 256.195 400.838 255.917C401.047 255.636 401.2 255.309 401.296 254.937L402.615 255C402.489 255.552 402.284 256.042 402.001 256.469C401.717 256.896 401.373 257.255 400.968 257.545C400.563 257.831 400.114 258.042 399.62 258.179C399.13 258.315 398.61 258.37 398.06 258.344C397.131 258.299 396.315 258.032 395.613 257.543C394.912 257.055 394.373 256.382 393.999 255.525C393.624 254.668 393.464 253.664 393.519 252.515C393.575 251.366 393.83 250.383 394.285 249.566C394.74 248.748 395.341 248.13 396.086 247.711C396.832 247.292 397.669 247.104 398.598 247.149C399.148 247.176 399.66 247.28 400.135 247.463C400.613 247.646 401.04 247.901 401.416 248.229C401.791 248.552 402.099 248.94 402.341 249.393C402.582 249.842 402.739 250.349 402.812 250.914ZM404.27 258.589L402.894 258.427L408.144 248.06L409.499 248.219L412.205 259.52L410.83 259.359L408.663 249.858L408.578 249.848L404.27 258.589ZM405.274 254.416L410.819 255.067L410.682 256.231L405.138 255.58L405.274 254.416ZM413.187 259.698L415.15 248.967L416.45 249.205L414.698 258.783L419.686 259.696L419.475 260.848L413.187 259.698ZM427.533 251.545L429.048 251.982L430.104 261.71L430.227 261.745L436.296 254.07L437.811 254.506L434.791 264.989L433.604 264.647L435.898 256.683L435.796 256.653L430.225 263.674L429.079 263.344L428.097 254.435L427.995 254.406L425.701 262.37L424.513 262.028L427.533 251.545ZM436.503 265.554L440.32 255.335L446.488 257.638L446.078 258.736L441.147 256.895L439.858 260.348L444.469 262.07L444.059 263.168L439.448 261.446L438.151 264.919L443.161 266.79L442.751 267.888L436.503 265.554ZM448.68 258.56L450.113 259.218L449.703 268.994L449.819 269.047L456.967 262.366L458.4 263.024L453.847 272.937L452.724 272.421L456.183 264.889L456.086 264.845L449.529 270.954L448.445 270.456L448.806 261.502L448.709 261.457L445.25 268.989L444.127 268.473L448.68 258.56ZM466.083 273.502C465.517 274.504 464.847 275.268 464.073 275.793C463.299 276.318 462.485 276.6 461.63 276.64C460.776 276.679 459.944 276.47 459.134 276.012C458.324 275.555 457.715 274.95 457.308 274.198C456.901 273.446 456.723 272.603 456.773 271.669C456.824 270.735 457.132 269.767 457.698 268.765C458.264 267.763 458.934 267 459.708 266.474C460.482 265.949 461.296 265.667 462.15 265.627C463.005 265.588 463.837 265.797 464.647 266.255C465.457 266.712 466.066 267.317 466.473 268.069C466.88 268.821 467.058 269.665 467.008 270.599C466.957 271.533 466.649 272.501 466.083 273.502ZM464.97 272.873C465.434 272.051 465.689 271.279 465.734 270.558C465.781 269.838 465.654 269.201 465.351 268.647C465.051 268.094 464.614 267.656 464.039 267.331C463.464 267.006 462.861 266.857 462.23 266.884C461.602 266.912 460.99 267.132 460.396 267.542C459.804 267.954 459.276 268.571 458.811 269.394C458.346 270.216 458.09 270.987 458.043 271.707C457.998 272.428 458.126 273.065 458.425 273.618C458.728 274.172 459.167 274.612 459.742 274.936C460.317 275.261 460.918 275.41 461.546 275.381C462.177 275.354 462.789 275.135 463.381 274.723C463.975 274.312 464.505 273.696 464.97 272.873ZM464.639 279.026L470.65 269.922L473.726 271.953C474.437 272.423 474.941 272.93 475.237 273.474C475.534 274.015 475.654 274.569 475.596 275.135C475.537 275.7 475.331 276.251 474.977 276.788C474.623 277.324 474.199 277.727 473.706 277.997C473.212 278.267 472.661 278.371 472.051 278.309C471.443 278.244 470.786 277.978 470.081 277.513L467.592 275.869L468.249 274.874L470.703 276.494C471.189 276.814 471.627 277.002 472.017 277.055C472.41 277.11 472.76 277.052 473.065 276.879C473.376 276.705 473.651 276.436 473.892 276.071C474.133 275.707 474.275 275.343 474.319 274.981C474.362 274.618 474.283 274.264 474.082 273.918C473.882 273.569 473.536 273.233 473.045 272.908L471.106 271.628L465.742 279.754L464.639 279.026ZM471.624 277.766L471.165 283.335L469.885 282.489L470.38 276.944L471.624 277.766ZM479.69 276.033L473.279 284.859L472.21 284.083L478.622 275.256L479.69 276.033ZM474.996 286.166L481.797 277.637L486.945 281.741L486.214 282.658L482.1 279.376L479.801 282.258L483.649 285.327L482.919 286.243L479.071 283.175L476.759 286.073L480.94 289.407L480.21 290.324L474.996 286.166ZM491.364 289.304C491.677 288.86 491.765 288.375 491.627 287.849C491.488 287.323 491.174 286.839 490.683 286.397C490.324 286.074 489.958 285.85 489.584 285.724C489.213 285.6 488.861 285.572 488.527 285.639C488.196 285.71 487.915 285.874 487.682 286.133C487.487 286.349 487.371 286.582 487.334 286.83C487.302 287.078 487.321 287.327 487.392 287.577C487.465 287.825 487.562 288.063 487.682 288.29C487.804 288.515 487.923 288.715 488.038 288.89L488.662 289.853C488.823 290.098 488.989 290.386 489.16 290.717C489.333 291.05 489.463 291.408 489.548 291.79C489.639 292.173 489.644 292.565 489.565 292.966C489.485 293.368 489.274 293.759 488.932 294.139C488.538 294.577 488.067 294.869 487.519 295.016C486.973 295.166 486.388 295.147 485.762 294.961C485.139 294.778 484.516 294.406 483.893 293.845C483.312 293.322 482.894 292.776 482.637 292.206C482.384 291.639 482.287 291.078 482.345 290.524C482.407 289.973 482.622 289.461 482.989 288.989L484.002 289.902C483.753 290.232 483.628 290.578 483.627 290.94C483.631 291.302 483.728 291.656 483.917 292.003C484.111 292.35 484.369 292.668 484.691 292.958C485.066 293.296 485.457 293.538 485.865 293.685C486.274 293.829 486.665 293.87 487.037 293.808C487.41 293.743 487.73 293.563 487.996 293.267C488.239 292.998 488.361 292.711 488.362 292.407C488.364 292.103 488.289 291.787 488.139 291.461C487.989 291.134 487.807 290.803 487.593 290.467L486.852 289.284C486.382 288.532 486.115 287.821 486.049 287.15C485.984 286.48 486.197 285.871 486.689 285.325C487.098 284.871 487.577 284.586 488.126 284.469C488.681 284.352 489.251 284.387 489.837 284.575C490.427 284.763 490.981 285.089 491.499 285.555C492.021 286.025 492.401 286.537 492.639 287.091C492.879 287.641 492.973 288.184 492.921 288.72C492.871 289.258 492.669 289.738 492.314 290.159L491.364 289.304ZM498.764 292.748L499.82 293.918L495.581 302.737L495.667 302.832L504.873 299.518L505.93 300.689L497.83 307.997L497.002 307.079L503.156 301.527L503.085 301.448L494.647 304.469L493.848 303.583L497.718 295.5L497.646 295.421L491.493 300.973L490.665 300.056L498.764 292.748ZM511.962 308.412L512.763 309.462L507.022 313.845C506.43 314.297 505.794 314.562 505.115 314.638C504.441 314.714 503.777 314.603 503.123 314.302C502.472 313.999 501.886 313.508 501.367 312.828C500.848 312.147 500.528 311.453 500.408 310.746C500.29 310.036 500.356 309.364 500.605 308.731C500.86 308.099 501.284 307.557 501.876 307.104L507.618 302.721L508.419 303.771L502.763 308.09C502.339 308.413 502.034 308.794 501.846 309.232C501.66 309.668 501.605 310.131 501.679 310.62C501.757 311.109 501.981 311.595 502.349 312.078C502.718 312.56 503.128 312.904 503.579 313.109C504.033 313.312 504.494 313.38 504.962 313.314C505.434 313.248 505.882 313.053 506.305 312.73L511.962 308.412ZM515.298 318.091C515.713 317.74 515.92 317.293 515.919 316.749C515.917 316.206 515.735 315.658 515.371 315.107C515.105 314.704 514.807 314.394 514.477 314.178C514.149 313.964 513.816 313.848 513.476 313.83C513.138 313.815 512.824 313.903 512.533 314.094C512.29 314.255 512.12 314.45 512.021 314.681C511.927 314.913 511.883 315.159 511.889 315.42C511.898 315.678 511.931 315.932 511.99 316.182C512.052 316.431 512.116 316.654 512.183 316.853L512.545 317.942C512.639 318.22 512.727 318.54 512.809 318.903C512.893 319.269 512.928 319.648 512.914 320.04C512.906 320.433 512.812 320.813 512.634 321.182C512.456 321.55 512.154 321.875 511.727 322.157C511.235 322.482 510.705 322.646 510.138 322.65C509.572 322.657 509.01 322.492 508.451 322.155C507.895 321.82 507.385 321.303 506.924 320.604C506.494 319.951 506.226 319.317 506.122 318.701C506.019 318.088 506.066 317.521 506.263 317C506.461 316.482 506.798 316.041 507.272 315.677L508.023 316.815C507.699 317.071 507.491 317.375 507.398 317.725C507.311 318.076 507.315 318.444 507.411 318.827C507.512 319.212 507.681 319.585 507.92 319.946C508.197 320.367 508.515 320.7 508.872 320.945C509.233 321.188 509.6 321.326 509.975 321.36C510.353 321.391 510.708 321.297 511.04 321.078C511.343 320.879 511.533 320.632 511.611 320.338C511.69 320.044 511.697 319.72 511.634 319.366C511.57 319.012 511.478 318.646 511.355 318.267L510.936 316.935C510.671 316.089 510.592 315.333 510.697 314.668C510.803 314.002 511.163 313.467 511.776 313.063C512.286 312.726 512.821 312.571 513.383 312.596C513.949 312.622 514.492 312.8 515.011 313.13C515.536 313.46 515.989 313.916 516.373 314.497C516.76 315.084 516.999 315.675 517.09 316.27C517.183 316.864 517.137 317.413 516.952 317.918C516.768 318.427 516.451 318.84 516.002 319.158L515.298 318.091ZM520.185 320.756L510.823 326.357L510.145 325.224L519.506 319.623L520.185 320.756ZM522.599 332.413L521.978 331.247C522.277 330.999 522.508 330.722 522.67 330.414C522.834 330.11 522.937 329.79 522.979 329.453C523.027 329.119 523.016 328.781 522.947 328.439C522.878 328.098 522.758 327.767 522.588 327.447C522.278 326.864 521.85 326.414 521.303 326.098C520.758 325.784 520.125 325.64 519.403 325.666C518.682 325.696 517.905 325.932 517.071 326.376C516.237 326.819 515.606 327.332 515.179 327.913C514.754 328.497 514.519 329.103 514.475 329.73C514.432 330.36 514.565 330.966 514.875 331.55C515.045 331.869 515.253 332.153 515.497 332.401C515.742 332.649 516.015 332.848 516.315 332.998C516.621 333.149 516.946 333.242 517.29 333.276C517.639 333.312 517.998 333.276 518.367 333.168L518.987 334.334C518.448 334.508 517.922 334.583 517.41 334.557C516.898 334.532 516.414 334.42 515.958 334.22C515.505 334.018 515.093 333.74 514.724 333.386C514.356 333.035 514.043 332.616 513.784 332.13C513.347 331.308 513.16 330.471 513.221 329.618C513.282 328.765 513.585 327.958 514.13 327.198C514.674 326.438 515.455 325.787 516.471 325.247C517.486 324.707 518.462 324.423 519.397 324.397C520.332 324.37 521.17 324.57 521.912 324.996C522.653 325.422 523.242 326.046 523.679 326.867C523.938 327.353 524.11 327.847 524.195 328.348C524.283 328.853 524.282 329.35 524.192 329.84C524.106 330.328 523.931 330.792 523.665 331.231C523.403 331.668 523.047 332.062 522.599 332.413ZM516.737 337.571L516.175 336.306L527.771 335.54L528.324 336.786L519.979 344.874L519.417 343.608L526.487 336.902L526.453 336.824L516.737 337.571ZM520.839 336.31L523.104 341.412L522.033 341.887L519.768 336.785L520.839 336.31ZM520.342 345.841L530.564 342.029L531.025 343.266L521.902 346.669L523.674 351.42L522.576 351.83L520.342 345.841ZM534.682 353.987L535.078 355.513L527.245 361.378L527.277 361.501L536.974 362.814L537.37 364.34L526.811 367.082L526.5 365.886L534.523 363.803L534.496 363.699L525.617 362.483L525.317 361.328L532.482 355.945L532.456 355.842L524.433 357.925L524.123 356.729L534.682 353.987ZM527.208 368.878L537.94 366.92L539.121 373.397L537.968 373.607L537.024 368.43L533.398 369.092L534.281 373.934L533.128 374.144L532.245 369.302L528.597 369.967L529.557 375.229L528.405 375.439L527.208 368.878ZM539.449 375.752L539.614 377.32L530.995 381.954L531.009 382.081L540.402 384.822L540.567 386.39L529.717 387.53L529.588 386.3L537.831 385.434L537.82 385.329L529.221 382.804L529.096 381.617L536.983 377.361L536.972 377.255L528.729 378.121L528.6 376.892L539.449 375.752ZM535.499 398.356C534.349 398.383 533.35 398.199 532.502 397.803C531.655 397.407 530.995 396.853 530.524 396.139C530.052 395.426 529.806 394.604 529.784 393.674C529.762 392.744 529.97 391.911 530.407 391.176C530.845 390.441 531.477 389.856 532.305 389.421C533.133 388.986 534.123 388.755 535.273 388.728C536.423 388.701 537.422 388.885 538.27 389.281C539.117 389.677 539.777 390.231 540.248 390.945C540.72 391.659 540.966 392.48 540.988 393.411C541.01 394.341 540.802 395.173 540.365 395.908C539.927 396.643 539.295 397.228 538.467 397.663C537.638 398.098 536.649 398.329 535.499 398.356ZM535.469 397.078C536.413 397.056 537.207 396.879 537.849 396.548C538.491 396.22 538.973 395.785 539.294 395.241C539.615 394.7 539.768 394.1 539.753 393.44C539.737 392.779 539.556 392.185 539.21 391.657C538.864 391.132 538.362 390.719 537.705 390.419C537.048 390.121 536.247 389.984 535.303 390.006C534.359 390.028 533.565 390.203 532.923 390.531C532.281 390.862 531.799 391.298 531.478 391.838C531.157 392.382 531.004 392.984 531.019 393.645C531.035 394.305 531.216 394.897 531.562 395.422C531.908 395.95 532.41 396.363 533.067 396.66C533.724 396.961 534.525 397.1 535.469 397.078ZM530.016 399.961L540.915 400.445L540.751 404.127C540.713 404.978 540.537 405.671 540.222 406.204C539.91 406.738 539.497 407.125 538.981 407.365C538.466 407.605 537.887 407.711 537.245 407.682C536.603 407.654 536.039 407.497 535.554 407.213C535.069 406.928 534.697 406.508 534.437 405.953C534.181 405.398 534.071 404.698 534.109 403.854L534.241 400.874L535.433 400.926L535.303 403.864C535.277 404.446 535.341 404.918 535.496 405.28C535.65 405.646 535.88 405.916 536.185 406.089C536.494 406.266 536.866 406.365 537.302 406.384C537.739 406.403 538.124 406.339 538.457 406.19C538.791 406.041 539.055 405.792 539.248 405.441C539.445 405.091 539.556 404.621 539.582 404.032L539.685 401.712L529.958 401.281L530.016 399.961ZM534.684 405.308L529.669 407.773L529.737 406.24L534.75 403.818L534.684 405.308ZM540.309 411.34L529.444 410.352L529.564 409.036L540.428 410.024L540.309 411.34ZM529.201 412.512L540.012 413.971L539.131 420.495L537.97 420.339L538.674 415.123L535.021 414.63L534.363 419.508L533.201 419.351L533.859 414.474L530.185 413.978L529.47 419.278L528.309 419.121L529.201 412.512ZM534.909 428.169C535.451 428.21 535.912 428.037 536.292 427.648C536.673 427.26 536.927 426.741 537.054 426.093C537.147 425.619 537.152 425.19 537.068 424.804C536.984 424.422 536.827 424.105 536.598 423.854C536.368 423.606 536.082 423.449 535.741 423.382C535.455 423.325 535.196 423.345 534.964 423.441C534.734 423.54 534.531 423.685 534.352 423.874C534.177 424.064 534.023 424.269 533.889 424.489C533.759 424.709 533.648 424.914 533.557 425.102L533.051 426.132C532.923 426.396 532.761 426.686 532.565 427.003C532.368 427.322 532.128 427.617 531.843 427.887C531.561 428.161 531.227 428.367 530.842 428.504C530.457 428.642 530.013 428.662 529.511 428.563C528.933 428.45 528.44 428.195 528.033 427.8C527.625 427.409 527.34 426.897 527.178 426.264C527.016 425.635 527.016 424.91 527.177 424.087C527.328 423.321 527.582 422.681 527.94 422.169C528.296 421.66 528.728 421.289 529.233 421.055C529.738 420.825 530.287 420.747 530.881 420.82L530.618 422.158C530.207 422.113 529.846 422.183 529.534 422.368C529.226 422.557 528.971 422.822 528.77 423.163C528.572 423.507 528.431 423.892 528.348 424.317C528.251 424.812 528.244 425.272 528.326 425.698C528.413 426.123 528.578 426.48 528.822 426.767C529.07 427.054 529.389 427.236 529.779 427.313C530.134 427.383 530.443 427.34 530.705 427.185C530.967 427.031 531.2 426.805 531.403 426.508C531.606 426.212 531.796 425.885 531.975 425.53L532.61 424.286C533.015 423.497 533.488 422.903 534.03 422.502C534.572 422.102 535.203 421.973 535.925 422.115C536.524 422.233 537.015 422.497 537.397 422.909C537.782 423.325 538.045 423.832 538.184 424.431C538.326 425.035 538.33 425.678 538.196 426.361C538.06 427.051 537.816 427.64 537.463 428.128C537.114 428.617 536.696 428.976 536.209 429.206C535.721 429.44 535.206 429.512 534.662 429.423L534.909 428.169ZM535.741 436.286L535.275 437.792L525.528 438.652L525.49 438.774L533.042 444.996L532.575 446.502L522.155 443.272L522.521 442.092L530.437 444.546L530.469 444.444L523.561 438.734L523.915 437.594L532.841 436.792L532.872 436.69L524.955 434.236L525.321 433.056L535.741 436.286ZM529.018 455.633L528.525 456.859L521.824 454.163C521.132 453.885 520.58 453.473 520.168 452.929C519.757 452.388 519.514 451.76 519.438 451.045C519.366 450.33 519.489 449.576 519.809 448.782C520.128 447.988 520.561 447.359 521.108 446.894C521.659 446.43 522.269 446.143 522.941 446.035C523.614 445.93 524.297 446.017 524.989 446.296L531.69 448.991L531.197 450.217L524.595 447.561C524.101 447.362 523.617 447.294 523.144 447.356C522.674 447.42 522.248 447.609 521.866 447.922C521.486 448.24 521.182 448.68 520.955 449.243C520.729 449.807 520.643 450.335 520.697 450.828C520.755 451.322 520.932 451.753 521.228 452.12C521.526 452.493 521.922 452.779 522.416 452.977L529.018 455.633ZM522.397 463.44C522.911 463.619 523.401 463.569 523.868 463.29C524.335 463.012 524.713 462.575 525.001 461.981C525.212 461.547 525.327 461.133 525.345 460.739C525.361 460.348 525.29 460.002 525.133 459.7C524.974 459.402 524.738 459.176 524.425 459.024C524.163 458.897 523.907 458.85 523.658 458.883C523.411 458.921 523.177 459.008 522.956 459.146C522.738 459.285 522.537 459.444 522.352 459.622C522.169 459.802 522.01 459.971 521.874 460.13L521.121 460.996C520.93 461.219 520.699 461.459 520.429 461.714C520.157 461.973 519.849 462.196 519.505 462.385C519.163 462.577 518.788 462.691 518.38 462.726C517.972 462.761 517.538 462.667 517.078 462.443C516.548 462.185 516.136 461.814 515.843 461.328C515.549 460.845 515.404 460.278 515.41 459.625C515.413 458.975 515.598 458.273 515.964 457.52C516.306 456.817 516.715 456.264 517.192 455.859C517.667 455.459 518.178 455.21 518.727 455.113C519.274 455.019 519.825 455.084 520.38 455.306L519.784 456.533C519.398 456.385 519.031 456.36 518.683 456.46C518.336 456.564 518.022 456.754 517.741 457.032C517.461 457.315 517.227 457.651 517.038 458.041C516.817 458.495 516.693 458.938 516.664 459.37C516.639 459.804 516.708 460.19 516.871 460.53C517.037 460.871 517.298 461.129 517.656 461.303C517.982 461.461 518.291 461.499 518.584 461.416C518.877 461.333 519.159 461.174 519.432 460.939C519.704 460.704 519.971 460.438 520.235 460.139L521.166 459.099C521.759 458.44 522.369 457.986 522.995 457.737C523.621 457.489 524.265 457.525 524.926 457.846C525.475 458.113 525.882 458.495 526.147 458.99C526.413 459.491 526.537 460.049 526.518 460.663C526.501 461.283 526.341 461.906 526.037 462.532C525.73 463.164 525.343 463.671 524.877 464.053C524.415 464.436 523.919 464.677 523.389 464.775C522.858 464.876 522.342 464.815 521.839 464.59L522.397 463.44ZM522.595 469.002L513.007 463.799L513.637 462.638L523.226 467.841L522.595 469.002ZM513.799 477.023L514.486 475.895C514.851 476.025 515.207 476.082 515.555 476.065C515.9 476.051 516.228 475.976 516.539 475.841C516.851 475.711 517.136 475.529 517.395 475.296C517.653 475.062 517.877 474.791 518.065 474.481C518.409 473.917 518.577 473.319 518.571 472.688C518.563 472.059 518.363 471.441 517.972 470.833C517.58 470.228 516.98 469.68 516.173 469.189C515.366 468.698 514.604 468.417 513.886 468.346C513.167 468.278 512.526 468.385 511.964 468.666C511.4 468.951 510.946 469.375 510.603 469.939C510.415 470.249 510.276 470.572 510.188 470.908C510.099 471.245 510.067 471.581 510.092 471.916C510.117 472.256 510.203 472.583 510.349 472.896C510.497 473.215 510.711 473.505 510.992 473.768L510.305 474.896C509.88 474.521 509.548 474.107 509.309 473.654C509.069 473.2 508.919 472.726 508.858 472.232C508.8 471.739 508.83 471.244 508.946 470.745C509.061 470.25 509.261 469.767 509.547 469.297C510.031 468.502 510.656 467.913 511.42 467.531C512.185 467.148 513.034 466.997 513.966 467.078C514.898 467.159 515.855 467.499 516.838 468.097C517.821 468.695 518.562 469.39 519.062 470.18C519.562 470.971 519.817 471.794 519.829 472.649C519.841 473.504 519.604 474.329 519.121 475.124C518.835 475.594 518.498 475.994 518.11 476.323C517.721 476.656 517.292 476.909 516.825 477.082C516.361 477.256 515.873 477.342 515.36 477.337C514.85 477.335 514.33 477.23 513.799 477.023ZM506.368 474.621L507.169 473.491L513.751 483.069L512.962 484.181L501.746 481.139L502.547 480.009L511.924 482.661L511.973 482.592L506.368 474.621ZM509.548 477.503L506.319 482.056L505.363 481.379L508.592 476.825L509.548 477.503ZM501.106 481.937L509.599 488.784L508.77 489.812L501.189 483.701L498.006 487.649L497.094 486.913L501.106 481.937ZM501.425 498.436L500.317 499.557L491.269 495.832L491.179 495.923L495.017 504.924L493.909 506.046L486.147 498.381L487.015 497.501L492.913 503.325L492.988 503.249L489.486 495L490.324 494.151L498.617 497.549L498.692 497.473L492.794 491.649L493.663 490.77L501.425 498.436ZM484.8 499.649L491.986 507.857L487.032 512.194L486.26 511.312L490.22 507.846L487.792 505.072L484.088 508.314L483.317 507.432L487.02 504.191L484.578 501.401L480.554 504.924L479.782 504.042L484.8 499.649ZM485.179 513.684L483.917 514.63L475.517 509.613L475.415 509.689L477.885 519.158L476.623 520.104L470.076 511.378L471.064 510.637L476.039 517.266L476.124 517.202L473.876 508.526L474.831 507.81L482.532 512.394L482.617 512.33L477.642 505.7L478.631 504.958L485.179 513.684ZM463.752 521.893C463.139 520.92 462.784 519.968 462.689 519.037C462.594 518.107 462.732 517.256 463.102 516.485C463.473 515.715 464.052 515.081 464.839 514.585C465.626 514.09 466.448 513.841 467.303 513.839C468.158 513.838 468.985 514.081 469.783 514.568C470.581 515.056 471.287 515.786 471.9 516.76C472.514 517.733 472.868 518.685 472.963 519.616C473.058 520.547 472.921 521.397 472.55 522.168C472.179 522.939 471.6 523.572 470.813 524.068C470.026 524.564 469.205 524.813 468.349 524.814C467.494 524.816 466.668 524.573 465.869 524.085C465.071 523.597 464.365 522.867 463.752 521.893ZM464.834 521.212C465.337 522.011 465.896 522.602 466.51 522.983C467.12 523.366 467.742 523.556 468.373 523.553C469.002 523.551 469.596 523.374 470.154 523.022C470.713 522.67 471.131 522.21 471.406 521.642C471.679 521.076 471.776 520.433 471.697 519.715C471.615 518.998 471.322 518.241 470.819 517.441C470.315 516.642 469.758 516.051 469.147 515.668C468.534 515.286 467.912 515.096 467.284 515.098C466.652 515.101 466.057 515.279 465.498 515.631C464.939 515.983 464.523 516.442 464.251 517.009C463.975 517.577 463.878 518.219 463.96 518.936C464.039 519.654 464.33 520.413 464.834 521.212ZM459.593 517.988L464.735 527.609L461.484 529.347C460.733 529.749 460.047 529.95 459.427 529.951C458.809 529.955 458.266 529.797 457.796 529.476C457.327 529.155 456.941 528.711 456.638 528.144C456.335 527.577 456.182 527.013 456.179 526.45C456.177 525.888 456.348 525.353 456.694 524.847C457.04 524.343 457.587 523.892 458.332 523.494L460.963 522.088L461.525 523.14L458.932 524.526C458.418 524.801 458.045 525.097 457.812 525.415C457.576 525.734 457.461 526.069 457.468 526.42C457.473 526.776 457.578 527.146 457.784 527.531C457.99 527.917 458.242 528.215 458.54 528.426C458.838 528.637 459.187 528.736 459.587 528.724C459.989 528.715 460.45 528.571 460.969 528.293L463.018 527.199L458.428 518.611L459.593 517.988ZM457.374 524.731L452.697 521.674L454.05 520.951L458.69 524.028L457.374 524.731ZM455.057 532.649L450.346 522.81L451.538 522.239L456.248 532.079L455.057 532.649ZM448.361 523.708L452.644 533.741L446.589 536.326L446.129 535.249L450.969 533.182L449.522 529.792L444.995 531.725L444.535 530.647L449.062 528.714L447.606 525.305L442.688 527.405L442.228 526.327L448.361 523.708ZM437.837 536.603C438.077 537.09 438.461 537.399 438.989 537.528C439.517 537.658 440.093 537.612 440.715 537.392C441.171 537.231 441.543 537.016 441.832 536.748C442.118 536.481 442.311 536.185 442.411 535.859C442.507 535.535 442.497 535.209 442.381 534.881C442.284 534.607 442.135 534.394 441.934 534.242C441.732 534.096 441.503 533.994 441.25 533.937C440.997 533.883 440.742 533.854 440.485 533.851C440.229 533.852 439.997 533.86 439.788 533.878L438.644 533.966C438.351 533.991 438.019 533.999 437.647 533.991C437.272 533.985 436.896 533.928 436.518 533.82C436.139 533.717 435.792 533.535 435.477 533.273C435.162 533.012 434.92 532.64 434.749 532.158C434.552 531.602 434.52 531.049 434.653 530.497C434.782 529.946 435.077 529.441 435.54 528.979C435.998 528.519 436.623 528.15 437.413 527.87C438.149 527.609 438.829 527.502 439.452 527.549C440.072 527.597 440.611 527.779 441.069 528.096C441.525 528.413 441.872 528.846 442.111 529.394L440.825 529.849C440.655 529.472 440.41 529.197 440.093 529.023C439.773 528.854 439.415 528.77 439.02 528.77C438.622 528.775 438.219 528.85 437.811 528.995C437.335 529.163 436.936 529.391 436.612 529.679C436.29 529.97 436.067 530.294 435.944 530.65C435.823 531.009 435.829 531.376 435.961 531.751C436.082 532.093 436.276 532.337 436.543 532.484C436.809 532.63 437.122 532.716 437.481 532.739C437.839 532.763 438.217 532.761 438.614 532.733L440.008 532.647C440.893 532.594 441.646 532.698 442.266 532.961C442.886 533.223 443.319 533.701 443.565 534.394C443.768 534.97 443.79 535.527 443.631 536.066C443.469 536.609 443.166 537.093 442.721 537.518C442.274 537.948 441.722 538.278 441.066 538.511C440.403 538.745 439.772 538.835 439.173 538.78C438.574 538.728 438.052 538.551 437.606 538.249C437.157 537.949 436.832 537.542 436.632 537.029L437.837 536.603ZM431.28 541.468L429.747 541.835L424.033 533.892L423.909 533.922L422.411 543.591L420.878 543.959L418.338 533.349L419.54 533.062L421.47 541.122L421.573 541.097L422.959 532.243L424.119 531.965L429.364 539.232L429.468 539.207L427.538 531.147L428.74 530.859L431.28 541.468ZM411.211 545.563L409.906 545.765L408.801 538.627C408.687 537.89 408.759 537.205 409.017 536.572C409.272 535.944 409.687 535.414 410.264 534.983C410.841 534.556 411.553 534.277 412.398 534.146C413.244 534.016 414.007 534.067 414.686 534.299C415.366 534.535 415.924 534.914 416.36 535.436C416.794 535.962 417.068 536.593 417.182 537.33L418.286 544.468L416.98 544.67L415.892 537.638C415.811 537.111 415.623 536.661 415.327 536.286C415.033 535.915 414.653 535.645 414.189 535.476C413.721 535.311 413.187 535.275 412.587 535.368C411.987 535.461 411.489 535.656 411.093 535.955C410.698 536.257 410.418 536.629 410.253 537.071C410.085 537.518 410.041 538.004 410.123 538.53L411.211 545.563ZM401.114 543.87C401.224 544.403 401.518 544.798 401.996 545.057C402.474 545.315 403.043 545.416 403.701 545.36C404.182 545.318 404.596 545.205 404.944 545.018C405.288 544.832 405.549 544.594 405.727 544.304C405.902 544.015 405.975 543.697 405.945 543.35C405.92 543.06 405.83 542.816 405.674 542.619C405.515 542.426 405.32 542.27 405.089 542.151C404.858 542.035 404.618 541.943 404.37 541.875C404.122 541.811 403.895 541.761 403.689 541.725L402.56 541.523C402.27 541.473 401.946 541.397 401.589 541.296C401.227 541.195 400.877 541.045 400.54 540.846C400.198 540.65 399.909 540.386 399.67 540.054C399.431 539.722 399.29 539.301 399.246 538.791C399.196 538.204 399.304 537.66 399.572 537.159C399.835 536.659 400.249 536.244 400.812 535.914C401.372 535.585 402.07 535.384 402.905 535.313C403.683 535.246 404.368 535.314 404.959 535.517C405.547 535.719 406.022 536.031 406.386 536.453C406.747 536.875 406.974 537.381 407.067 537.972L405.708 538.088C405.638 537.681 405.471 537.353 405.207 537.104C404.94 536.86 404.616 536.688 404.233 536.589C403.847 536.494 403.438 536.465 403.006 536.502C402.504 536.545 402.06 536.665 401.674 536.862C401.288 537.062 400.991 537.319 400.783 537.633C400.575 537.95 400.488 538.307 400.522 538.703C400.553 539.064 400.679 539.349 400.9 539.558C401.121 539.768 401.402 539.929 401.743 540.042C402.084 540.155 402.45 540.249 402.842 540.322L404.212 540.59C405.082 540.761 405.784 541.052 406.318 541.463C406.852 541.873 407.151 542.445 407.213 543.177C407.266 543.786 407.146 544.33 406.856 544.811C406.563 545.296 406.147 545.688 405.61 545.987C405.069 546.29 404.452 546.472 403.758 546.531C403.058 546.591 402.424 546.519 401.858 546.314C401.292 546.113 400.831 545.81 400.476 545.406C400.117 545.002 399.905 544.526 399.84 543.98L401.114 543.87ZM396.438 546.888L395.999 535.988L397.319 535.935L397.758 546.835L396.438 546.888ZM385.046 543.435L386.367 543.448C386.441 543.829 386.575 544.164 386.767 544.453C386.956 544.743 387.188 544.987 387.463 545.185C387.735 545.386 388.037 545.538 388.37 545.641C388.703 545.743 389.05 545.797 389.413 545.8C390.073 545.806 390.673 545.645 391.212 545.317C391.748 544.988 392.177 544.5 392.5 543.854C392.818 543.207 392.982 542.411 392.992 541.467C393.001 540.522 392.852 539.723 392.546 539.07C392.236 538.418 391.817 537.922 391.287 537.583C390.754 537.244 390.158 537.071 389.497 537.065C389.135 537.061 388.786 537.107 388.452 537.204C388.117 537.3 387.812 537.444 387.537 537.637C387.258 537.833 387.021 538.074 386.826 538.36C386.628 538.649 386.488 538.982 386.407 539.357L385.086 539.345C385.19 538.788 385.376 538.291 385.643 537.853C385.91 537.415 386.241 537.044 386.634 536.739C387.028 536.437 387.469 536.209 387.957 536.054C388.441 535.898 388.959 535.824 389.509 535.829C390.439 535.838 391.265 536.073 391.985 536.535C392.705 536.996 393.268 537.648 393.676 538.49C394.083 539.332 394.281 540.328 394.27 541.479C394.259 542.629 394.041 543.622 393.618 544.456C393.194 545.29 392.618 545.931 391.889 546.378C391.16 546.826 390.331 547.045 389.401 547.036C388.85 547.03 388.334 546.946 387.853 546.781C387.368 546.617 386.932 546.378 386.544 546.065C386.156 545.756 385.833 545.38 385.575 544.937C385.316 544.498 385.14 543.997 385.046 543.435ZM383.284 535.823L384.665 535.93L379.826 546.496L378.466 546.391L375.318 535.204L376.699 535.311L379.237 544.719L379.322 544.726L383.284 535.823ZM382.444 540.032L376.878 539.599L376.969 538.431L382.535 538.864L382.444 540.032ZM374.314 535.065L372.79 545.867L371.482 545.682L372.842 536.04L367.821 535.332L367.985 534.171L374.314 535.065ZM360.313 543.792L358.782 543.416L357.342 533.738L357.218 533.707L351.457 541.616L349.926 541.24L352.529 530.646L353.729 530.941L351.752 538.99L351.855 539.015L357.143 531.78L358.302 532.065L359.635 540.927L359.738 540.952L361.716 532.903L362.916 533.198L360.313 543.792ZM350.763 530.142L347.386 540.515L341.125 538.477L341.488 537.363L346.492 538.992L347.633 535.487L342.953 533.964L343.316 532.849L347.996 534.373L349.144 530.848L344.059 529.192L344.421 528.078L350.763 530.142ZM338.898 537.645L337.44 537.043L337.471 527.258L337.353 527.21L330.469 534.164L329.012 533.562L333.177 523.479L334.319 523.951L331.155 531.611L331.253 531.652L337.568 525.293L338.671 525.749L338.658 534.711L338.756 534.751L341.92 527.091L343.062 527.562L338.898 537.645ZM320.911 523.401C321.436 522.377 322.075 521.587 322.827 521.031C323.579 520.475 324.381 520.16 325.233 520.086C326.085 520.012 326.925 520.187 327.753 520.611C328.581 521.036 329.213 521.616 329.651 522.351C330.088 523.086 330.3 523.921 330.288 524.856C330.275 525.791 330.006 526.771 329.481 527.795C328.956 528.819 328.318 529.609 327.566 530.165C326.814 530.721 326.012 531.036 325.16 531.11C324.307 531.184 323.468 531.009 322.64 530.584C321.812 530.16 321.179 529.58 320.742 528.845C320.305 528.11 320.092 527.275 320.105 526.34C320.118 525.404 320.386 524.425 320.911 523.401ZM322.049 523.984C321.618 524.825 321.395 525.606 321.38 526.329C321.361 527.05 321.514 527.681 321.839 528.223C322.161 528.763 322.616 529.183 323.203 529.485C323.791 529.786 324.4 529.91 325.029 529.858C325.656 529.804 326.258 529.56 326.835 529.126C327.41 528.69 327.913 528.052 328.344 527.211C328.775 526.371 328.999 525.59 329.018 524.869C329.033 524.147 328.88 523.516 328.558 522.976C328.233 522.434 327.777 522.012 327.189 521.711C326.601 521.41 325.994 521.286 325.368 521.34C324.738 521.392 324.136 521.636 323.562 522.072C322.984 522.506 322.48 523.144 322.049 523.984ZM322.133 517.824L316.494 527.163L313.338 525.257C312.609 524.816 312.085 524.33 311.768 523.798C311.448 523.269 311.306 522.721 311.342 522.153C311.378 521.586 311.562 521.027 311.894 520.477C312.227 519.927 312.634 519.507 313.116 519.217C313.598 518.927 314.145 518.801 314.757 518.839C315.367 518.88 316.033 519.119 316.757 519.555L319.31 521.098L318.693 522.119L316.177 520.599C315.678 520.298 315.233 520.128 314.841 520.091C314.445 520.051 314.099 520.124 313.8 520.309C313.497 520.495 313.233 520.775 313.007 521.149C312.781 521.523 312.654 521.892 312.625 522.256C312.595 522.62 312.689 522.971 312.904 523.308C313.117 523.648 313.476 523.971 313.981 524.276L315.969 525.476L321.003 517.141L322.133 517.824ZM315.204 519.365L315.44 513.782L316.753 514.575L316.481 520.136L315.204 519.365ZM307.216 521.419L313.275 512.347L314.373 513.081L308.314 522.153L307.216 521.419ZM311.499 511.104L305.047 519.9L299.738 516.007L300.431 515.062L304.675 518.174L306.855 515.202L302.886 512.291L303.579 511.346L307.548 514.257L309.74 511.267L305.428 508.104L306.121 507.159L311.499 511.104ZM295.025 508.625C294.729 509.081 294.66 509.569 294.819 510.088C294.978 510.608 295.311 511.08 295.819 511.502C296.19 511.811 296.565 512.021 296.944 512.132C297.319 512.241 297.673 512.256 298.003 512.175C298.331 512.092 298.606 511.916 298.828 511.649C299.015 511.425 299.121 511.188 299.149 510.938C299.171 510.689 299.142 510.441 299.061 510.194C298.978 509.949 298.872 509.716 298.743 509.493C298.612 509.273 298.486 509.078 298.364 508.907L297.703 507.97C297.532 507.731 297.355 507.449 297.172 507.126C296.985 506.8 296.842 506.448 296.741 506.069C296.636 505.69 296.615 505.299 296.679 504.894C296.742 504.49 296.938 504.091 297.265 503.698C297.642 503.245 298.101 502.934 298.643 502.766C299.182 502.595 299.768 502.59 300.4 502.751C301.03 502.91 301.667 503.258 302.312 503.793C302.912 504.293 303.352 504.822 303.63 505.382C303.906 505.939 304.025 506.495 303.988 507.051C303.948 507.604 303.754 508.124 303.405 508.61L302.357 507.738C302.593 507.399 302.704 507.048 302.691 506.686C302.673 506.325 302.563 505.974 302.36 505.635C302.152 505.296 301.882 504.988 301.549 504.711C301.161 504.389 300.761 504.162 300.348 504.031C299.933 503.903 299.541 503.877 299.172 503.954C298.801 504.033 298.488 504.226 298.234 504.532C298.002 504.81 297.892 505.102 297.902 505.406C297.913 505.71 297.999 506.022 298.162 506.343C298.326 506.663 298.52 506.987 298.747 507.314L299.534 508.467C300.033 509.2 300.328 509.901 300.42 510.568C300.511 511.235 300.322 511.852 299.852 512.417C299.462 512.886 298.994 513.191 298.45 513.329C297.9 513.468 297.329 513.455 296.736 513.29C296.139 513.125 295.572 512.821 295.037 512.376C294.497 511.926 294.097 511.43 293.837 510.886C293.576 510.345 293.46 509.806 293.492 509.269C293.52 508.729 293.704 508.242 294.042 507.807L295.025 508.625Z" fill="white" fill-opacity="0.29"/>
<circle cx="393.5" cy="397.5" r="14.5" fill="#010101"/>
<circle cx="392.5" cy="397.5" r="368" stroke="white" stroke-opacity="0.1"/>
<circle cx="390.5" cy="393.5" r="343" stroke="white" stroke-opacity="0.1"/>
<circle cx="393.5" cy="393.5" r="318" stroke="white" stroke-opacity="0.1"/>
</svg>
